<svg width="348" height="80" viewBox="0 0 221 52" fill="none" xmlns="http://www.w3.org/2000/svg">
<path d="M14.8032 26.8815C16.6552 26.8815 17.988 26.4395 18.8018 25.5556C19.6156 24.6717 20.0224 23.437 20.0224 21.8516C20.0224 21.1501 19.9172 20.5117 19.7068 19.9364C19.4963 19.3612 19.1736 18.8701 18.7387 18.4633C18.3178 18.0423 17.7776 17.7196 17.1182 17.4952C16.4728 17.2707 15.7011 17.1584 14.8032 17.1584H11.0991V26.8815H14.8032ZM14.8032 11.8339C16.9638 11.8339 18.8158 12.0935 20.3592 12.6126C21.9165 13.1177 23.1933 13.8192 24.1895 14.7172C25.1996 15.6151 25.9433 16.6744 26.4203 17.895C26.8973 19.1157 27.1358 20.4345 27.1358 21.8516C27.1358 23.3809 26.8903 24.7839 26.3992 26.0607C25.9082 27.3375 25.1576 28.4318 24.1474 29.3438C23.1372 30.2558 21.8534 30.9713 20.296 31.4904C18.7527 31.9955 16.9217 32.2481 14.8032 32.2481H11.0991V42.4973H3.98575V11.8339H14.8032ZM53.937 34.5631C54.1054 34.5631 54.2737 34.5982 54.4421 34.6683C54.6104 34.7244 54.7718 34.8297 54.9261 34.984L57.7462 37.9514C56.5116 39.5649 54.9612 40.7856 53.0952 41.6133C51.2432 42.4271 49.0474 42.834 46.5079 42.834C44.1789 42.834 42.0884 42.4411 40.2363 41.6554C38.3984 40.8557 36.834 39.7613 35.5432 38.3723C34.2664 36.9693 33.2843 35.3137 32.5968 33.4056C31.9093 31.4834 31.5656 29.3999 31.5656 27.1551C31.5656 24.8681 31.9374 22.7706 32.681 20.8624C33.4246 18.9403 34.4699 17.2847 35.8168 15.8957C37.1637 14.5067 38.7772 13.4264 40.6573 12.6547C42.5373 11.883 44.6068 11.4972 46.8657 11.4972C48.0162 11.4972 49.0965 11.6024 50.1067 11.8129C51.1309 12.0093 52.085 12.2899 52.9689 12.6547C53.8528 13.0054 54.6666 13.4334 55.4102 13.9385C56.1538 14.4436 56.8132 14.9907 57.3885 15.58L54.9893 18.8C54.8349 18.9964 54.6525 19.1788 54.4421 19.3472C54.2316 19.5015 53.937 19.5787 53.5582 19.5787C53.3056 19.5787 53.0671 19.5225 52.8426 19.4103C52.6181 19.2981 52.3796 19.1648 52.1271 19.0104C51.8745 18.8421 51.5939 18.6667 51.2853 18.4843C50.9906 18.2879 50.6328 18.1125 50.2119 17.9582C49.805 17.7898 49.321 17.6495 48.7598 17.5373C48.2126 17.425 47.5672 17.3689 46.8236 17.3689C45.645 17.3689 44.5647 17.5864 43.5826 18.0213C42.6145 18.4562 41.7727 19.0946 41.0571 19.9364C40.3556 20.7642 39.8084 21.7885 39.4156 23.0091C39.0368 24.2157 38.8473 25.5977 38.8473 27.1551C38.8473 28.7265 39.0578 30.1225 39.4787 31.3431C39.9136 32.5638 40.4959 33.595 41.2255 34.4368C41.9691 35.2646 42.832 35.896 43.8141 36.3309C44.7962 36.7659 45.8485 36.9833 46.9709 36.9833C47.6163 36.9833 48.2056 36.9553 48.7387 36.8991C49.2719 36.829 49.77 36.7238 50.233 36.5835C50.696 36.4291 51.1309 36.2327 51.5378 35.9942C51.9447 35.7416 52.3586 35.426 52.7795 35.0471C52.9478 34.9068 53.1302 34.7946 53.3267 34.7104C53.5231 34.6122 53.7265 34.5631 53.937 34.5631ZM83.3448 34.5631C83.5132 34.5631 83.6816 34.5982 83.8499 34.6683C84.0183 34.7244 84.1796 34.8297 84.334 34.984L87.1541 37.9514C85.9194 39.5649 84.369 40.7856 82.503 41.6133C80.651 42.4271 78.4553 42.834 75.9158 42.834C73.5867 42.834 71.4962 42.4411 69.6442 41.6554C67.8062 40.8557 66.2418 39.7613 64.951 38.3723C63.6743 36.9693 62.6921 35.3137 62.0047 33.4056C61.3172 31.4834 60.9734 29.3999 60.9734 27.1551C60.9734 24.8681 61.3452 22.7706 62.0888 20.8624C62.8325 18.9403 63.8777 17.2847 65.2246 15.8957C66.5715 14.5067 68.185 13.4264 70.0651 12.6547C71.9452 11.883 74.0146 11.4972 76.2735 11.4972C77.424 11.4972 78.5044 11.6024 79.5145 11.8129C80.5388 12.0093 81.4928 12.2899 82.3767 12.6547C83.2606 13.0054 84.0744 13.4334 84.818 13.9385C85.5616 14.4436 86.2211 14.9907 86.7963 15.58L84.3971 18.8C84.2428 18.9964 84.0604 19.1788 83.8499 19.3472C83.6395 19.5015 83.3448 19.5787 82.966 19.5787C82.7135 19.5787 82.4749 19.5225 82.2505 19.4103C82.026 19.2981 81.7875 19.1648 81.5349 19.0104C81.2824 18.8421 81.0018 18.6667 80.6931 18.4843C80.3985 18.2879 80.0407 18.1125 79.6198 17.9582C79.2129 17.7898 78.7288 17.6495 78.1676 17.5373C77.6204 17.425 76.975 17.3689 76.2314 17.3689C75.0529 17.3689 73.9726 17.5864 72.9904 18.0213C72.0223 18.4562 71.1805 19.0946 70.465 19.9364C69.7634 20.7642 69.2163 21.7885 68.8234 23.0091C68.4446 24.2157 68.2552 25.5977 68.2552 27.1551C68.2552 28.7265 68.4656 30.1225 68.8865 31.3431C69.3215 32.5638 69.9037 33.595 70.6333 34.4368C71.3769 35.2646 72.2398 35.896 73.2219 36.3309C74.2041 36.7659 75.2563 36.9833 76.3788 36.9833C77.0242 36.9833 77.6134 36.9553 78.1466 36.8991C78.6797 36.829 79.1778 36.7238 79.6408 36.5835C80.1038 36.4291 80.5388 36.2327 80.9456 35.9942C81.3525 35.7416 81.7664 35.426 82.1873 35.0471C82.3557 34.9068 82.5381 34.7946 82.7345 34.7104C82.9309 34.6122 83.1344 34.5631 83.3448 34.5631Z" fill="white"/>
<line x1="99.3679" y1="6.70551" x2="99.368" y2="45.289" stroke="white" stroke-opacity="0.5" stroke-width="1.37798"/>
<path d="M114.05 17.0434C114.39 17.0434 114.686 17.0021 114.939 16.9194C115.192 16.8321 115.401 16.7104 115.566 16.5542C115.736 16.3935 115.862 16.2005 115.945 15.9755C116.028 15.7458 116.069 15.4909 116.069 15.2107C116.069 14.9443 116.028 14.7031 115.945 14.4873C115.862 14.2714 115.738 14.0876 115.573 13.9361C115.408 13.7845 115.199 13.6697 114.946 13.5916C114.693 13.5089 114.395 13.4675 114.05 13.4675H112.665V17.0434H114.05ZM114.05 12.0344C114.716 12.0344 115.293 12.1125 115.78 12.2687C116.267 12.4249 116.668 12.6431 116.985 12.9232C117.302 13.2034 117.537 13.5387 117.688 13.9292C117.844 14.3196 117.922 14.7468 117.922 15.2107C117.922 15.693 117.842 16.1362 117.681 16.5404C117.521 16.9401 117.279 17.2846 116.958 17.5739C116.636 17.8633 116.232 18.0884 115.745 18.2491C115.263 18.4099 114.698 18.4903 114.05 18.4903H112.665V21.9973H110.812V12.0344H114.05ZM125.139 14.9282V21.9973H124.098C123.873 21.9973 123.731 21.8939 123.671 21.6872L123.554 21.1222C123.265 21.4162 122.945 21.6551 122.596 21.8388C122.247 22.0179 121.836 22.1075 121.363 22.1075C120.977 22.1075 120.635 22.0432 120.336 21.9146C120.042 21.7814 119.794 21.5953 119.592 21.3565C119.39 21.1176 119.236 20.8352 119.131 20.509C119.03 20.1783 118.979 19.8154 118.979 19.4204V14.9282H120.681V19.4204C120.681 19.8522 120.78 20.1875 120.977 20.4264C121.179 20.6606 121.48 20.7777 121.88 20.7777C122.174 20.7777 122.449 20.7134 122.707 20.5848C122.964 20.4516 123.207 20.2702 123.437 20.0405V14.9282H125.139ZM128.418 15.7963C128.56 15.6539 128.709 15.523 128.866 15.4036C129.026 15.2796 129.194 15.1762 129.368 15.0936C129.548 15.0063 129.738 14.9397 129.94 14.8938C130.142 14.8432 130.363 14.818 130.602 14.818C130.988 14.818 131.33 14.8846 131.628 15.0178C131.927 15.1464 132.175 15.3301 132.372 15.569C132.575 15.8032 132.726 16.0857 132.827 16.4164C132.933 16.7426 132.986 17.1031 132.986 17.4981V21.9973H131.284V17.4981C131.284 17.0664 131.185 16.7334 130.988 16.4991C130.79 16.2603 130.489 16.1408 130.085 16.1408C129.791 16.1408 129.515 16.2074 129.258 16.3406C129.001 16.4738 128.758 16.6553 128.528 16.8849V21.9973H126.826V14.9282H127.866C128.087 14.9282 128.232 15.0316 128.301 15.2383L128.418 15.7963ZM136.866 22.1075C136.251 22.1075 135.778 21.9352 135.447 21.5907C135.121 21.2417 134.958 20.7617 134.958 20.1508V16.2028H134.234C134.143 16.2028 134.064 16.173 134 16.1133C133.936 16.0536 133.904 15.964 133.904 15.8446V15.1694L135.04 14.9833L135.399 13.0542C135.422 12.9623 135.465 12.8911 135.53 12.8406C135.594 12.79 135.677 12.7648 135.778 12.7648H136.66V14.9902H138.547V16.2028H136.66V20.0336C136.66 20.2541 136.712 20.4264 136.818 20.5504C136.928 20.6744 137.078 20.7364 137.266 20.7364C137.372 20.7364 137.459 20.7249 137.528 20.702C137.601 20.6744 137.663 20.6468 137.714 20.6193C137.769 20.5917 137.817 20.5664 137.858 20.5435C137.9 20.5159 137.941 20.5021 137.982 20.5021C138.033 20.5021 138.074 20.5159 138.107 20.5435C138.139 20.5664 138.173 20.6032 138.21 20.6537L138.72 21.4805C138.472 21.6872 138.187 21.8434 137.865 21.949C137.544 22.0547 137.211 22.1075 136.866 22.1075ZM142.711 14.818C143.235 14.818 143.71 14.9029 144.137 15.0729C144.569 15.2428 144.937 15.484 145.24 15.7963C145.548 16.1087 145.784 16.4899 145.949 16.9401C146.115 17.3902 146.198 17.8932 146.198 18.449C146.198 19.0093 146.115 19.5146 145.949 19.9647C145.784 20.4149 145.548 20.7984 145.24 21.1153C144.937 21.4323 144.569 21.6757 144.137 21.8457C143.71 22.0156 143.235 22.1006 142.711 22.1006C142.183 22.1006 141.703 22.0156 141.271 21.8457C140.839 21.6757 140.47 21.4323 140.162 21.1153C139.859 20.7984 139.622 20.4149 139.452 19.9647C139.287 19.5146 139.204 19.0093 139.204 18.449C139.204 17.8932 139.287 17.3902 139.452 16.9401C139.622 16.4899 139.859 16.1087 140.162 15.7963C140.47 15.484 140.839 15.2428 141.271 15.0729C141.703 14.9029 142.183 14.818 142.711 14.818ZM142.711 20.7915C143.299 20.7915 143.733 20.594 144.013 20.199C144.298 19.804 144.441 19.2252 144.441 18.4627C144.441 17.7002 144.298 17.1192 144.013 16.7196C143.733 16.32 143.299 16.1202 142.711 16.1202C142.114 16.1202 141.671 16.3223 141.381 16.7265C141.097 17.1261 140.954 17.7048 140.954 18.4627C140.954 19.2206 141.097 19.7994 141.381 20.199C141.671 20.594 142.114 20.7915 142.711 20.7915ZM155.7 16.6782C155.47 16.3705 155.222 16.1569 154.956 16.0375C154.689 15.9135 154.391 15.8515 154.06 15.8515C153.412 15.8515 152.914 16.0834 152.565 16.5473C152.216 17.0113 152.041 17.6727 152.041 18.5316C152.041 18.9864 152.08 19.3768 152.158 19.7029C152.236 20.0244 152.351 20.2909 152.503 20.5021C152.654 20.7088 152.84 20.8604 153.061 20.9569C153.281 21.0533 153.532 21.1016 153.812 21.1016C154.216 21.1016 154.568 21.0097 154.866 20.826C155.169 20.6422 155.447 20.3827 155.7 20.0474V16.6782ZM156.926 11.8484V21.9973H156.196C156.021 21.9973 155.911 21.9123 155.865 21.7423L155.755 20.8949C155.456 21.2531 155.116 21.5425 154.735 21.763C154.354 21.9835 153.913 22.0937 153.412 22.0937C153.013 22.0937 152.65 22.0179 152.324 21.8663C151.998 21.7102 151.72 21.4828 151.49 21.1842C151.26 20.8857 151.084 20.5136 150.96 20.0681C150.835 19.6225 150.773 19.1104 150.773 18.5316C150.773 18.0172 150.842 17.5395 150.98 17.0985C151.118 16.653 151.315 16.2671 151.573 15.941C151.83 15.6149 152.145 15.36 152.517 15.1762C152.893 14.9879 153.316 14.8938 153.784 14.8938C154.212 14.8938 154.577 14.9673 154.88 15.1142C155.188 15.2566 155.461 15.4564 155.7 15.7137V11.8484H156.926ZM163.535 17.7462C163.535 17.4614 163.493 17.2019 163.411 16.9676C163.332 16.7288 163.215 16.5244 163.059 16.3544C162.908 16.1799 162.722 16.0467 162.501 15.9548C162.281 15.8583 162.03 15.8101 161.75 15.8101C161.162 15.8101 160.696 15.9824 160.351 16.3269C160.012 16.6668 159.8 17.1399 159.718 17.7462H163.535ZM164.527 21.0189C164.375 21.2026 164.194 21.3634 163.982 21.5012C163.771 21.6344 163.544 21.7446 163.3 21.8319C163.061 21.9192 162.813 21.9835 162.556 22.0248C162.299 22.0707 162.044 22.0937 161.791 22.0937C161.309 22.0937 160.864 22.0133 160.455 21.8526C160.051 21.6872 159.699 21.4484 159.401 21.136C159.107 20.8191 158.877 20.4287 158.712 19.9647C158.546 19.5008 158.464 18.968 158.464 18.3663C158.464 17.8794 158.537 17.4247 158.684 17.0021C158.836 16.5795 159.052 16.2143 159.332 15.9066C159.612 15.5942 159.954 15.3508 160.358 15.1762C160.763 14.9971 161.217 14.9075 161.723 14.9075C162.141 14.9075 162.526 14.9787 162.88 15.1211C163.238 15.2589 163.546 15.461 163.803 15.7274C164.065 15.9893 164.269 16.3154 164.416 16.7058C164.563 17.0916 164.637 17.5326 164.637 18.0287C164.637 18.2216 164.616 18.3502 164.575 18.4145C164.534 18.4788 164.456 18.511 164.341 18.511H159.676C159.69 18.9519 159.75 19.3355 159.855 19.6616C159.966 19.9877 160.117 20.261 160.31 20.4815C160.503 20.6974 160.733 20.8604 160.999 20.9707C161.265 21.0763 161.564 21.1291 161.895 21.1291C162.203 21.1291 162.467 21.0947 162.687 21.0258C162.912 20.9523 163.105 20.8742 163.266 20.7915C163.427 20.7088 163.56 20.6331 163.665 20.5642C163.776 20.4907 163.87 20.4539 163.948 20.4539C164.049 20.4539 164.127 20.493 164.182 20.571L164.527 21.0189ZM176.649 19.6478C176.75 19.6478 176.839 19.6868 176.917 19.7649L177.648 20.5573C177.243 21.0579 176.745 21.4415 176.152 21.7079C175.565 21.9743 174.857 22.1075 174.03 22.1075C173.291 22.1075 172.625 21.9812 172.032 21.7285C171.444 21.4759 170.941 21.1245 170.523 20.6744C170.105 20.2243 169.784 19.6868 169.559 19.0622C169.338 18.4375 169.228 17.7554 169.228 17.0159C169.228 16.2671 169.348 15.5828 169.586 14.9627C169.825 14.338 170.161 13.8006 170.592 13.3504C171.029 12.9003 171.548 12.5512 172.149 12.3032C172.751 12.0505 173.417 11.9242 174.147 11.9242C174.873 11.9242 175.516 12.0436 176.077 12.2825C176.642 12.5213 177.122 12.8337 177.517 13.2195L176.897 14.0808C176.86 14.1359 176.812 14.1841 176.752 14.2254C176.697 14.2668 176.619 14.2874 176.518 14.2874C176.449 14.2874 176.378 14.2691 176.304 14.2323C176.231 14.191 176.15 14.1428 176.063 14.0876C175.976 14.0279 175.875 13.9636 175.76 13.8947C175.645 13.8258 175.512 13.7638 175.36 13.7087C175.209 13.649 175.032 13.6008 174.83 13.564C174.632 13.5227 174.402 13.502 174.141 13.502C173.695 13.502 173.286 13.5824 172.914 13.7431C172.547 13.8993 172.23 14.129 171.963 14.4321C171.697 14.7307 171.49 15.0982 171.343 15.5345C171.196 15.9663 171.123 16.4601 171.123 17.0159C171.123 17.5762 171.201 18.0746 171.357 18.511C171.518 18.9473 171.734 19.3148 172.005 19.6133C172.276 19.9119 172.595 20.1416 172.962 20.3023C173.33 20.4585 173.725 20.5366 174.147 20.5366C174.4 20.5366 174.627 20.5228 174.83 20.4953C175.036 20.4677 175.225 20.4241 175.395 20.3643C175.569 20.3046 175.732 20.2288 175.884 20.137C176.04 20.0405 176.194 19.9234 176.345 19.7856C176.391 19.7443 176.44 19.7121 176.49 19.6891C176.541 19.6616 176.593 19.6478 176.649 19.6478ZM181.628 14.818C182.152 14.818 182.627 14.9029 183.055 15.0729C183.486 15.2428 183.854 15.484 184.157 15.7963C184.465 16.1087 184.701 16.4899 184.867 16.9401C185.032 17.3902 185.115 17.8932 185.115 18.449C185.115 19.0093 185.032 19.5146 184.867 19.9647C184.701 20.4149 184.465 20.7984 184.157 21.1153C183.854 21.4323 183.486 21.6757 183.055 21.8457C182.627 22.0156 182.152 22.1006 181.628 22.1006C181.1 22.1006 180.62 22.0156 180.188 21.8457C179.757 21.6757 179.387 21.4323 179.079 21.1153C178.776 20.7984 178.539 20.4149 178.37 19.9647C178.204 19.5146 178.121 19.0093 178.121 18.449C178.121 17.8932 178.204 17.3902 178.37 16.9401C178.539 16.4899 178.776 16.1087 179.079 15.7963C179.387 15.484 179.757 15.2428 180.188 15.0729C180.62 14.9029 181.1 14.818 181.628 14.818ZM181.628 20.7915C182.216 20.7915 182.65 20.594 182.931 20.199C183.215 19.804 183.358 19.2252 183.358 18.4627C183.358 17.7002 183.215 17.1192 182.931 16.7196C182.65 16.32 182.216 16.1202 181.628 16.1202C181.031 16.1202 180.588 16.3223 180.299 16.7265C180.014 17.1261 179.872 17.7048 179.872 18.4627C179.872 19.2206 180.014 19.7994 180.299 20.199C180.588 20.594 181.031 20.7915 181.628 20.7915ZM188.005 15.7963C188.147 15.6539 188.296 15.523 188.452 15.4036C188.613 15.2796 188.781 15.1762 188.955 15.0936C189.135 15.0063 189.325 14.9397 189.527 14.8938C189.729 14.8432 189.95 14.818 190.189 14.818C190.575 14.818 190.917 14.8846 191.215 15.0178C191.514 15.1464 191.762 15.3301 191.959 15.569C192.162 15.8032 192.313 16.0857 192.414 16.4164C192.52 16.7426 192.573 17.1031 192.573 17.4981V21.9973H190.871V17.4981C190.871 17.0664 190.772 16.7334 190.575 16.4991C190.377 16.2603 190.076 16.1408 189.672 16.1408C189.378 16.1408 189.102 16.2074 188.845 16.3406C188.588 16.4738 188.345 16.6553 188.115 16.8849V21.9973H186.413V14.9282H187.453C187.674 14.9282 187.819 15.0316 187.887 15.2383L188.005 15.7963ZM196.453 22.1075C195.838 22.1075 195.365 21.9352 195.034 21.5907C194.708 21.2417 194.545 20.7617 194.545 20.1508V16.2028H193.821C193.729 16.2028 193.651 16.173 193.587 16.1133C193.523 16.0536 193.491 15.964 193.491 15.8446V15.1694L194.627 14.9833L194.986 13.0542C195.009 12.9623 195.052 12.8911 195.117 12.8406C195.181 12.79 195.264 12.7648 195.365 12.7648H196.247V14.9902H198.134V16.2028H196.247V20.0336C196.247 20.2541 196.299 20.4264 196.405 20.5504C196.515 20.6744 196.665 20.7364 196.853 20.7364C196.959 20.7364 197.046 20.7249 197.115 20.702C197.188 20.6744 197.25 20.6468 197.301 20.6193C197.356 20.5917 197.404 20.5664 197.445 20.5435C197.487 20.5159 197.528 20.5021 197.569 20.5021C197.62 20.5021 197.661 20.5159 197.693 20.5435C197.726 20.5664 197.76 20.6032 197.797 20.6537L198.307 21.4805C198.059 21.6872 197.774 21.8434 197.452 21.949C197.131 22.0547 196.798 22.1075 196.453 22.1075ZM200.829 16.1546C201.05 15.732 201.312 15.4013 201.615 15.1625C201.918 14.919 202.276 14.7973 202.69 14.7973C203.016 14.7973 203.278 14.8685 203.475 15.0109L203.365 16.2855C203.342 16.3682 203.307 16.4279 203.261 16.4647C203.22 16.4968 203.163 16.5129 203.089 16.5129C203.02 16.5129 202.917 16.5014 202.779 16.4784C202.646 16.4555 202.515 16.444 202.386 16.444C202.198 16.444 202.03 16.4715 201.883 16.5267C201.736 16.5818 201.603 16.6622 201.484 16.7678C201.369 16.8689 201.266 16.9929 201.174 17.1399C201.087 17.2869 201.004 17.4545 200.926 17.6428V21.9973H199.224V14.9282H200.223C200.398 14.9282 200.519 14.9604 200.588 15.0247C200.657 15.0844 200.703 15.1946 200.726 15.3554L200.829 16.1546ZM207.291 14.818C207.814 14.818 208.29 14.9029 208.717 15.0729C209.149 15.2428 209.516 15.484 209.819 15.7963C210.127 16.1087 210.364 16.4899 210.529 16.9401C210.694 17.3902 210.777 17.8932 210.777 18.449C210.777 19.0093 210.694 19.5146 210.529 19.9647C210.364 20.4149 210.127 20.7984 209.819 21.1153C209.516 21.4323 209.149 21.6757 208.717 21.8457C208.29 22.0156 207.814 22.1006 207.291 22.1006C206.762 22.1006 206.282 22.0156 205.851 21.8457C205.419 21.6757 205.049 21.4323 204.741 21.1153C204.438 20.7984 204.202 20.4149 204.032 19.9647C203.866 19.5146 203.784 19.0093 203.784 18.449C203.784 17.8932 203.866 17.3902 204.032 16.9401C204.202 16.4899 204.438 16.1087 204.741 15.7963C205.049 15.484 205.419 15.2428 205.851 15.0729C206.282 14.9029 206.762 14.818 207.291 14.818ZM207.291 20.7915C207.879 20.7915 208.313 20.594 208.593 20.199C208.878 19.804 209.02 19.2252 209.02 18.4627C209.02 17.7002 208.878 17.1192 208.593 16.7196C208.313 16.32 207.879 16.1202 207.291 16.1202C206.694 16.1202 206.25 16.3223 205.961 16.7265C205.676 17.1261 205.534 17.7048 205.534 18.4627C205.534 19.2206 205.676 19.7994 205.961 20.199C206.25 20.594 206.694 20.7915 207.291 20.7915ZM213.798 11.7589V21.9973H212.096V11.7589H213.798ZM115.222 34.6782C114.992 34.3705 114.744 34.1569 114.477 34.0375C114.211 33.9135 113.912 33.8515 113.582 33.8515C112.934 33.8515 112.436 34.0834 112.087 34.5473C111.738 35.0113 111.563 35.6727 111.563 36.5316C111.563 36.9864 111.602 37.3768 111.68 37.7029C111.758 38.0244 111.873 38.2909 112.025 38.5021C112.176 38.7088 112.362 38.8604 112.583 38.9569C112.803 39.0533 113.054 39.1016 113.334 39.1016C113.738 39.1016 114.089 39.0097 114.388 38.826C114.691 38.6422 114.969 38.3827 115.222 38.0474V34.6782ZM116.448 29.8484V39.9973H115.718C115.543 39.9973 115.433 39.9123 115.387 39.7423L115.277 38.8949C114.978 39.2531 114.638 39.5425 114.257 39.763C113.876 39.9835 113.435 40.0937 112.934 40.0937C112.535 40.0937 112.172 40.0179 111.846 39.8663C111.519 39.7102 111.242 39.4828 111.012 39.1842C110.782 38.8857 110.605 38.5136 110.481 38.0681C110.357 37.6225 110.295 37.1104 110.295 36.5316C110.295 36.0172 110.364 35.5395 110.502 35.0985C110.64 34.653 110.837 34.2671 111.095 33.941C111.352 33.6149 111.666 33.36 112.038 33.1762C112.415 32.9879 112.838 32.8938 113.306 32.8938C113.733 32.8938 114.099 32.9673 114.402 33.1142C114.709 33.2566 114.983 33.4564 115.222 33.7137V29.8484H116.448ZM123.056 35.7462C123.056 35.4614 123.015 35.2019 122.932 34.9676C122.854 34.7288 122.737 34.5244 122.581 34.3544C122.429 34.1799 122.243 34.0467 122.023 33.9548C121.802 33.8583 121.552 33.8101 121.272 33.8101C120.684 33.8101 120.218 33.9824 119.873 34.3269C119.533 34.6668 119.322 35.1399 119.239 35.7462H123.056ZM124.049 39.0189C123.897 39.2026 123.716 39.3634 123.504 39.5012C123.293 39.6344 123.066 39.7446 122.822 39.8319C122.583 39.9192 122.335 39.9835 122.078 40.0248C121.821 40.0707 121.566 40.0937 121.313 40.0937C120.831 40.0937 120.385 40.0133 119.977 39.8526C119.572 39.6872 119.221 39.4484 118.922 39.136C118.628 38.8191 118.399 38.4287 118.233 37.9647C118.068 37.5008 117.985 36.968 117.985 36.3663C117.985 35.8794 118.059 35.4247 118.206 35.0021C118.357 34.5795 118.573 34.2143 118.854 33.9066C119.134 33.5942 119.476 33.3508 119.88 33.1762C120.284 32.9971 120.739 32.9075 121.244 32.9075C121.662 32.9075 122.048 32.9787 122.402 33.1211C122.76 33.2589 123.068 33.461 123.325 33.7274C123.587 33.9893 123.791 34.3154 123.938 34.7058C124.085 35.0916 124.159 35.5326 124.159 36.0287C124.159 36.2216 124.138 36.3502 124.097 36.4145C124.055 36.4788 123.977 36.511 123.862 36.511H119.198C119.212 36.9519 119.272 37.3355 119.377 37.6616C119.487 37.9877 119.639 38.261 119.832 38.4815C120.025 38.6974 120.254 38.8604 120.521 38.9707C120.787 39.0763 121.086 39.1291 121.417 39.1291C121.724 39.1291 121.988 39.0947 122.209 39.0258C122.434 38.9523 122.627 38.8742 122.788 38.7915C122.948 38.7088 123.082 38.6331 123.187 38.5642C123.298 38.4907 123.392 38.4539 123.47 38.4539C123.571 38.4539 123.649 38.493 123.704 38.571L124.049 39.0189ZM136.17 37.6478C136.271 37.6478 136.361 37.6868 136.439 37.7649L137.169 38.5573C136.765 39.0579 136.267 39.4415 135.674 39.7079C135.086 39.9743 134.379 40.1075 133.552 40.1075C132.813 40.1075 132.147 39.9812 131.554 39.7285C130.966 39.4759 130.463 39.1245 130.045 38.6744C129.627 38.2243 129.306 37.6868 129.081 37.0622C128.86 36.4375 128.75 35.7554 128.75 35.0159C128.75 34.2671 128.869 33.5828 129.108 32.9627C129.347 32.338 129.682 31.8006 130.114 31.3504C130.55 30.9003 131.07 30.5512 131.671 30.3032C132.273 30.0505 132.939 29.9242 133.669 29.9242C134.395 29.9242 135.038 30.0436 135.598 30.2825C136.163 30.5213 136.643 30.8337 137.038 31.2195L136.418 32.0808C136.382 32.1359 136.333 32.1841 136.274 32.2254C136.219 32.2668 136.14 32.2874 136.039 32.2874C135.971 32.2874 135.899 32.2691 135.826 32.2323C135.752 32.191 135.672 32.1428 135.585 32.0876C135.497 32.0279 135.396 31.9636 135.282 31.8947C135.167 31.8258 135.034 31.7638 134.882 31.7087C134.73 31.649 134.554 31.6008 134.351 31.564C134.154 31.5227 133.924 31.502 133.662 31.502C133.217 31.502 132.808 31.5824 132.436 31.7431C132.069 31.8993 131.752 32.129 131.485 32.4321C131.219 32.7307 131.012 33.0982 130.865 33.5345C130.718 33.9663 130.645 34.4601 130.645 35.0159C130.645 35.5762 130.723 36.0746 130.879 36.511C131.04 36.9473 131.256 37.3148 131.527 37.6133C131.798 37.9119 132.117 38.1416 132.484 38.3023C132.852 38.4585 133.247 38.5366 133.669 38.5366C133.922 38.5366 134.149 38.5228 134.351 38.4953C134.558 38.4677 134.746 38.4241 134.916 38.3643C135.091 38.3046 135.254 38.2288 135.406 38.137C135.562 38.0405 135.716 37.9234 135.867 37.7856C135.913 37.7443 135.961 37.7121 136.012 37.6891C136.062 37.6616 136.115 37.6478 136.17 37.6478ZM142.576 35.6497C142.576 35.4292 142.544 35.2225 142.48 35.0296C142.42 34.8321 142.328 34.6599 142.204 34.5129C142.08 34.3659 141.922 34.2511 141.729 34.1684C141.541 34.0811 141.32 34.0375 141.068 34.0375C140.576 34.0375 140.188 34.1776 139.903 34.4578C139.623 34.738 139.444 35.1353 139.366 35.6497H142.576ZM139.331 36.6763C139.359 37.0392 139.423 37.3538 139.524 37.6202C139.625 37.8821 139.758 38.1002 139.924 38.2748C140.089 38.4447 140.284 38.5733 140.509 38.6606C140.739 38.7433 140.992 38.7846 141.267 38.7846C141.543 38.7846 141.78 38.7525 141.977 38.6882C142.179 38.6239 142.354 38.5527 142.501 38.4746C142.652 38.3965 142.783 38.3253 142.893 38.261C143.008 38.1967 143.118 38.1645 143.224 38.1645C143.366 38.1645 143.472 38.2174 143.541 38.323L144.03 38.9431C143.842 39.1636 143.631 39.3496 143.396 39.5012C143.162 39.6482 142.916 39.7676 142.659 39.8595C142.406 39.9467 142.147 40.0087 141.881 40.0455C141.619 40.0822 141.364 40.1006 141.116 40.1006C140.624 40.1006 140.167 40.0202 139.745 39.8595C139.322 39.6941 138.955 39.453 138.642 39.136C138.33 38.8145 138.084 38.4195 137.905 37.951C137.726 37.4778 137.636 36.9312 137.636 36.3112C137.636 35.8289 137.714 35.3764 137.871 34.9538C138.027 34.5267 138.25 34.1569 138.539 33.8446C138.833 33.5276 139.189 33.2773 139.607 33.0936C140.029 32.9098 140.505 32.818 141.033 32.818C141.479 32.818 141.89 32.8892 142.266 33.0316C142.643 33.1739 142.967 33.3829 143.238 33.6585C143.509 33.9295 143.72 34.2649 143.872 34.6645C144.028 35.0595 144.106 35.5119 144.106 36.0218C144.106 36.279 144.078 36.4535 144.023 36.5454C143.968 36.6327 143.863 36.6763 143.706 36.6763H139.331ZM146.988 34.1546C147.209 33.732 147.471 33.4013 147.774 33.1625C148.077 32.919 148.435 32.7973 148.849 32.7973C149.175 32.7973 149.437 32.8685 149.634 33.0109L149.524 34.2855C149.501 34.3682 149.467 34.4279 149.421 34.4647C149.379 34.4968 149.322 34.5129 149.248 34.5129C149.179 34.5129 149.076 34.5014 148.938 34.4784C148.805 34.4555 148.674 34.444 148.546 34.444C148.357 34.444 148.19 34.4715 148.043 34.5267C147.896 34.5818 147.762 34.6622 147.643 34.7678C147.528 34.8689 147.425 34.9929 147.333 35.1399C147.246 35.2869 147.163 35.4545 147.085 35.6428V39.9973H145.383V32.9282H146.382C146.557 32.9282 146.678 32.9604 146.747 33.0247C146.816 33.0844 146.862 33.1946 146.885 33.3554L146.988 34.1546ZM157.655 39.9973H155.953V34.2028H152.673V38.0336C152.673 38.2541 152.726 38.4264 152.832 38.5504C152.942 38.6744 153.091 38.7364 153.28 38.7364C153.385 38.7364 153.473 38.7249 153.541 38.702C153.615 38.6744 153.677 38.6468 153.727 38.6193C153.783 38.5917 153.831 38.5664 153.872 38.5435C153.913 38.5159 153.955 38.5021 153.996 38.5021C154.047 38.5021 154.088 38.5159 154.12 38.5435C154.152 38.5664 154.187 38.6032 154.224 38.6537L154.733 39.4805C154.485 39.6872 154.201 39.8434 153.879 39.949C153.557 40.0547 153.224 40.1075 152.88 40.1075C152.264 40.1075 151.791 39.9352 151.461 39.5907C151.135 39.2417 150.971 38.7617 150.971 38.1508V34.2028H150.248C150.156 34.2028 150.078 34.173 150.014 34.1133C149.949 34.0536 149.917 33.964 149.917 33.8446V33.1694L151.054 32.9764L151.412 31.0542C151.435 30.9623 151.479 30.8911 151.543 30.8406C151.608 30.79 151.69 30.7648 151.791 30.7648H152.673V32.9902H157.655V39.9973ZM157.951 30.8406C157.951 30.9876 157.921 31.1276 157.861 31.2609C157.802 31.3895 157.721 31.502 157.62 31.5985C157.524 31.6949 157.407 31.773 157.269 31.8327C157.136 31.8878 156.993 31.9154 156.842 31.9154C156.695 31.9154 156.557 31.8878 156.428 31.8327C156.3 31.773 156.187 31.6949 156.091 31.5985C155.994 31.502 155.916 31.3895 155.856 31.2609C155.801 31.1276 155.774 30.9876 155.774 30.8406C155.774 30.689 155.801 30.5489 155.856 30.4203C155.916 30.2871 155.994 30.1722 156.091 30.0758C156.187 29.9747 156.3 29.8967 156.428 29.8415C156.557 29.7818 156.695 29.752 156.842 29.752C156.993 29.752 157.136 29.7818 157.269 29.8415C157.407 29.8967 157.524 29.9747 157.62 30.0758C157.721 30.1722 157.802 30.2871 157.861 30.4203C157.921 30.5489 157.951 30.689 157.951 30.8406ZM159.895 39.9973V34.2097L159.281 34.1133C159.148 34.0857 159.04 34.0398 158.958 33.9755C158.88 33.9066 158.84 33.8101 158.84 33.6861V32.9902H159.895V32.7629C159.895 32.3311 159.966 31.9315 160.108 31.564C160.251 31.192 160.467 30.8704 160.756 30.5994C161.045 30.3284 161.41 30.1171 161.851 29.9655C162.297 29.8094 162.821 29.7313 163.422 29.7313C163.615 29.7313 163.81 29.7428 164.008 29.7657C164.21 29.7841 164.385 29.8163 164.532 29.8622L164.476 30.7441C164.467 30.8498 164.41 30.9141 164.304 30.937C164.199 30.9554 164.068 30.9646 163.911 30.9646C163.466 30.9646 163.092 31.0036 162.788 31.0817C162.49 31.1598 162.246 31.2769 162.058 31.4331C161.874 31.5847 161.741 31.7776 161.658 32.0119C161.58 32.2415 161.541 32.5102 161.541 32.818V32.9902H165.923V39.9973H164.222V34.2028H161.596V39.9973H159.895ZM172.732 34.4233C172.681 34.4876 172.631 34.5382 172.58 34.5749C172.534 34.6116 172.465 34.63 172.373 34.63C172.286 34.63 172.201 34.6048 172.119 34.5542C172.036 34.4991 171.937 34.4394 171.822 34.3751C171.707 34.3062 171.57 34.2465 171.409 34.196C171.253 34.1408 171.057 34.1133 170.823 34.1133C170.525 34.1133 170.263 34.1684 170.038 34.2786C169.813 34.3843 169.624 34.5382 169.473 34.7403C169.326 34.9424 169.216 35.1881 169.142 35.4775C169.069 35.7623 169.032 36.0861 169.032 36.449C169.032 36.8256 169.071 37.1609 169.149 37.4549C169.232 37.7488 169.349 37.9969 169.5 38.199C169.652 38.3965 169.836 38.5481 170.052 38.6537C170.267 38.7548 170.511 38.8053 170.782 38.8053C171.053 38.8053 171.271 38.7731 171.436 38.7088C171.606 38.6399 171.749 38.5664 171.864 38.4884C171.978 38.4057 172.077 38.3322 172.16 38.2679C172.247 38.199 172.344 38.1645 172.449 38.1645C172.587 38.1645 172.69 38.2174 172.759 38.323L173.248 38.9431C173.06 39.1636 172.856 39.3496 172.635 39.5012C172.415 39.6482 172.185 39.7676 171.946 39.8595C171.712 39.9467 171.469 40.0087 171.216 40.0455C170.968 40.0822 170.72 40.1006 170.472 40.1006C170.035 40.1006 169.624 40.0202 169.239 39.8595C168.853 39.6941 168.515 39.4552 168.226 39.1429C167.936 38.8306 167.707 38.4493 167.537 37.9992C167.371 37.5444 167.289 37.0277 167.289 36.449C167.289 35.9299 167.362 35.4499 167.509 35.009C167.661 34.5634 167.881 34.1799 168.171 33.8583C168.46 33.5322 168.818 33.2773 169.245 33.0936C169.673 32.9098 170.164 32.818 170.72 32.818C171.248 32.818 171.71 32.9029 172.105 33.0729C172.504 33.2428 172.863 33.4863 173.18 33.8032L172.732 34.4233ZM178.05 36.9795C177.558 37.0024 177.145 37.0461 176.809 37.1104C176.474 37.1701 176.205 37.2482 176.003 37.3446C175.801 37.4411 175.657 37.5536 175.569 37.6822C175.482 37.8109 175.438 37.951 175.438 38.1025C175.438 38.4011 175.526 38.6147 175.7 38.7433C175.879 38.8719 176.111 38.9362 176.396 38.9362C176.745 38.9362 177.046 38.8742 177.299 38.7502C177.556 38.6216 177.806 38.4287 178.05 38.1714V36.9795ZM174.15 33.9135C174.963 33.1694 175.941 32.7973 177.085 32.7973C177.498 32.7973 177.868 32.8662 178.194 33.004C178.52 33.1372 178.796 33.3255 179.021 33.569C179.246 33.8078 179.416 34.0949 179.531 34.4302C179.65 34.7655 179.71 35.133 179.71 35.5326V39.9973H178.938C178.778 39.9973 178.654 39.9743 178.566 39.9284C178.479 39.8778 178.41 39.7791 178.36 39.6321L178.208 39.1222C178.029 39.283 177.854 39.4254 177.684 39.5494C177.515 39.6688 177.338 39.7699 177.154 39.8526C176.97 39.9352 176.773 39.9973 176.561 40.0386C176.355 40.0845 176.125 40.1075 175.872 40.1075C175.574 40.1075 175.298 40.0684 175.046 39.9904C174.793 39.9077 174.575 39.786 174.391 39.6252C174.207 39.4644 174.065 39.2646 173.964 39.0258C173.863 38.7869 173.812 38.509 173.812 38.1921C173.812 38.013 173.842 37.8361 173.902 37.6616C173.962 37.4824 174.058 37.3125 174.191 37.1517C174.329 36.991 174.506 36.8394 174.722 36.697C174.938 36.5546 175.202 36.4306 175.514 36.3249C175.831 36.2193 176.199 36.1343 176.617 36.07C177.035 36.0011 177.512 35.9598 178.05 35.946V35.5326C178.05 35.0595 177.949 34.7104 177.747 34.4853C177.544 34.2557 177.253 34.1408 176.871 34.1408C176.596 34.1408 176.366 34.173 176.182 34.2373C176.003 34.3016 175.845 34.3751 175.707 34.4578C175.569 34.5359 175.443 34.607 175.328 34.6714C175.218 34.7357 175.094 34.7678 174.956 34.7678C174.837 34.7678 174.736 34.738 174.653 34.6782C174.57 34.6139 174.504 34.5404 174.453 34.4578L174.15 33.9135ZM186.377 34.4233C186.326 34.4876 186.276 34.5382 186.225 34.5749C186.179 34.6116 186.111 34.63 186.019 34.63C185.931 34.63 185.846 34.6048 185.764 34.5542C185.681 34.4991 185.582 34.4394 185.468 34.3751C185.353 34.3062 185.215 34.2465 185.054 34.196C184.898 34.1408 184.703 34.1133 184.468 34.1133C184.17 34.1133 183.908 34.1684 183.683 34.2786C183.458 34.3843 183.27 34.5382 183.118 34.7403C182.971 34.9424 182.861 35.1881 182.787 35.4775C182.714 35.7623 182.677 36.0861 182.677 36.449C182.677 36.8256 182.716 37.1609 182.794 37.4549C182.877 37.7488 182.994 37.9969 183.146 38.199C183.297 38.3965 183.481 38.5481 183.697 38.6537C183.913 38.7548 184.156 38.8053 184.427 38.8053C184.698 38.8053 184.916 38.7731 185.082 38.7088C185.252 38.6399 185.394 38.5664 185.509 38.4884C185.624 38.4057 185.722 38.3322 185.805 38.2679C185.892 38.199 185.989 38.1645 186.094 38.1645C186.232 38.1645 186.336 38.2174 186.405 38.323L186.894 38.9431C186.705 39.1636 186.501 39.3496 186.281 39.5012C186.06 39.6482 185.83 39.7676 185.592 39.8595C185.357 39.9467 185.114 40.0087 184.861 40.0455C184.613 40.0822 184.365 40.1006 184.117 40.1006C183.681 40.1006 183.27 40.0202 182.884 39.8595C182.498 39.6941 182.16 39.4552 181.871 39.1429C181.582 38.8306 181.352 38.4493 181.182 37.9992C181.017 37.5444 180.934 37.0277 180.934 36.449C180.934 35.9299 181.007 35.4499 181.154 35.009C181.306 34.5634 181.526 34.1799 181.816 33.8583C182.105 33.5322 182.464 33.2773 182.891 33.0936C183.318 32.9098 183.809 32.818 184.365 32.818C184.893 32.818 185.355 32.9029 185.75 33.0729C186.15 33.2428 186.508 33.4863 186.825 33.8032L186.377 34.4233ZM189.724 32.9282V39.9973H188.016V32.9282H189.724ZM189.959 30.8681C189.959 31.0151 189.929 31.1529 189.869 31.2815C189.809 31.4101 189.729 31.5227 189.628 31.6191C189.531 31.7156 189.417 31.7937 189.283 31.8534C189.15 31.9085 189.008 31.9361 188.856 31.9361C188.709 31.9361 188.569 31.9085 188.436 31.8534C188.307 31.7937 188.195 31.7156 188.098 31.6191C188.002 31.5227 187.924 31.4101 187.864 31.2815C187.809 31.1529 187.781 31.0151 187.781 30.8681C187.781 30.7165 187.809 30.5742 187.864 30.441C187.924 30.3077 188.002 30.1929 188.098 30.0965C188.195 30 188.307 29.9242 188.436 29.8691C188.569 29.8094 188.709 29.7795 188.856 29.7795C189.008 29.7795 189.15 29.8094 189.283 29.8691C189.417 29.9242 189.531 30 189.628 30.0965C189.729 30.1929 189.809 30.3077 189.869 30.441C189.929 30.5742 189.959 30.7165 189.959 30.8681ZM194.587 32.818C195.111 32.818 195.586 32.9029 196.014 33.0729C196.445 33.2428 196.813 33.484 197.116 33.7963C197.424 34.1087 197.66 34.4899 197.826 34.9401C197.991 35.3902 198.074 35.8932 198.074 36.449C198.074 37.0093 197.991 37.5146 197.826 37.9647C197.66 38.4149 197.424 38.7984 197.116 39.1153C196.813 39.4323 196.445 39.6757 196.014 39.8457C195.586 40.0156 195.111 40.1006 194.587 40.1006C194.059 40.1006 193.579 40.0156 193.147 39.8457C192.716 39.6757 192.346 39.4323 192.038 39.1153C191.735 38.7984 191.498 38.4149 191.328 37.9647C191.163 37.5146 191.08 37.0093 191.08 36.449C191.08 35.8932 191.163 35.3902 191.328 34.9401C191.498 34.4899 191.735 34.1087 192.038 33.7963C192.346 33.484 192.716 33.2428 193.147 33.0729C193.579 32.9029 194.059 32.818 194.587 32.818ZM194.587 38.7915C195.175 38.7915 195.609 38.594 195.89 38.199C196.174 37.804 196.317 37.2252 196.317 36.4627C196.317 35.7002 196.174 35.1192 195.89 34.7196C195.609 34.32 195.175 34.1202 194.587 34.1202C193.99 34.1202 193.547 34.3223 193.258 34.7265C192.973 35.1261 192.83 35.7048 192.83 36.4627C192.83 37.2206 192.973 37.7994 193.258 38.199C193.547 38.594 193.99 38.7915 194.587 38.7915ZM200.964 33.7963C201.106 33.6539 201.255 33.523 201.411 33.4036C201.572 33.2796 201.74 33.1762 201.914 33.0936C202.093 33.0063 202.284 32.9397 202.486 32.8938C202.688 32.8432 202.909 32.818 203.148 32.818C203.533 32.818 203.876 32.8846 204.174 33.0178C204.473 33.1464 204.721 33.3301 204.918 33.569C205.12 33.8032 205.272 34.0857 205.373 34.4164C205.479 34.7426 205.532 35.1031 205.532 35.4981V39.9973H203.83V35.4981C203.83 35.0664 203.731 34.7334 203.533 34.4991C203.336 34.2603 203.035 34.1408 202.631 34.1408C202.337 34.1408 202.061 34.2074 201.804 34.3406C201.547 34.4738 201.303 34.6553 201.074 34.8849V39.9973H199.372V32.9282H200.412C200.633 32.9282 200.778 33.0316 200.846 33.2383L200.964 33.7963ZM211.704 35.6497C211.704 35.4292 211.672 35.2225 211.608 35.0296C211.548 34.8321 211.456 34.6599 211.332 34.5129C211.208 34.3659 211.05 34.2511 210.857 34.1684C210.668 34.0811 210.448 34.0375 210.195 34.0375C209.704 34.0375 209.316 34.1776 209.031 34.4578C208.751 34.738 208.572 35.1353 208.494 35.6497H211.704ZM208.459 36.6763C208.487 37.0392 208.551 37.3538 208.652 37.6202C208.753 37.8821 208.886 38.1002 209.052 38.2748C209.217 38.4447 209.412 38.5733 209.637 38.6606C209.867 38.7433 210.12 38.7846 210.395 38.7846C210.671 38.7846 210.907 38.7525 211.105 38.6882C211.307 38.6239 211.481 38.5527 211.628 38.4746C211.78 38.3965 211.911 38.3253 212.021 38.261C212.136 38.1967 212.246 38.1645 212.352 38.1645C212.494 38.1645 212.6 38.2174 212.669 38.323L213.158 38.9431C212.97 39.1636 212.758 39.3496 212.524 39.5012C212.29 39.6482 212.044 39.7676 211.787 39.8595C211.534 39.9467 211.275 40.0087 211.008 40.0455C210.747 40.0822 210.492 40.1006 210.244 40.1006C209.752 40.1006 209.295 40.0202 208.873 39.8595C208.45 39.6941 208.082 39.453 207.77 39.136C207.458 38.8145 207.212 38.4195 207.033 37.951C206.854 37.4778 206.764 36.9312 206.764 36.3112C206.764 35.8289 206.842 35.3764 206.998 34.9538C207.155 34.5267 207.377 34.1569 207.667 33.8446C207.961 33.5276 208.317 33.2773 208.735 33.0936C209.157 32.9098 209.633 32.818 210.161 32.818C210.606 32.818 211.018 32.8892 211.394 33.0316C211.771 33.1739 212.095 33.3829 212.366 33.6585C212.637 33.9295 212.848 34.2649 213 34.6645C213.156 35.0595 213.234 35.5119 213.234 36.0218C213.234 36.279 213.206 36.4535 213.151 36.5454C213.096 36.6327 212.99 36.6763 212.834 36.6763H208.459ZM218.824 34.3062C218.778 34.3797 218.73 34.4325 218.679 34.4647C218.629 34.4922 218.565 34.506 218.486 34.506C218.404 34.506 218.314 34.483 218.218 34.4371C218.126 34.3912 218.018 34.3406 217.894 34.2855C217.77 34.2258 217.627 34.173 217.467 34.1271C217.311 34.0811 217.125 34.0582 216.909 34.0582C216.573 34.0582 216.309 34.1293 216.116 34.2717C215.928 34.4141 215.834 34.6002 215.834 34.8298C215.834 34.9814 215.882 35.11 215.978 35.2157C216.08 35.3167 216.21 35.4063 216.371 35.4844C216.537 35.5625 216.723 35.6336 216.929 35.698C217.136 35.7577 217.345 35.8243 217.556 35.8978C217.772 35.9713 217.983 36.0562 218.19 36.1527C218.397 36.2446 218.581 36.364 218.741 36.511C218.907 36.6534 219.038 36.8256 219.134 37.0277C219.235 37.2298 219.286 37.4733 219.286 37.758C219.286 38.0979 219.224 38.4126 219.1 38.702C218.98 38.9867 218.801 39.2348 218.562 39.4461C218.323 39.6528 218.027 39.8158 217.673 39.9352C217.324 40.0501 216.92 40.1075 216.461 40.1075C216.217 40.1075 215.978 40.0845 215.744 40.0386C215.515 39.9973 215.292 39.9375 215.076 39.8595C214.865 39.7814 214.667 39.6895 214.483 39.5839C214.304 39.4782 214.146 39.3634 214.008 39.2394L214.401 38.5917C214.451 38.5136 214.511 38.4539 214.58 38.4126C214.649 38.3712 214.736 38.3506 214.842 38.3506C214.947 38.3506 215.046 38.3804 215.138 38.4401C215.234 38.4998 215.345 38.5642 215.469 38.6331C215.593 38.702 215.737 38.7663 215.903 38.826C216.073 38.8857 216.286 38.9155 216.543 38.9155C216.746 38.9155 216.918 38.8926 217.06 38.8466C217.207 38.7961 217.327 38.7318 217.418 38.6537C217.515 38.5756 217.584 38.4861 217.625 38.385C217.671 38.2794 217.694 38.1714 217.694 38.0612C217.694 37.8958 217.644 37.7603 217.542 37.6547C217.446 37.549 217.315 37.4572 217.15 37.3791C216.989 37.301 216.803 37.2321 216.592 37.1724C216.385 37.1081 216.171 37.0392 215.951 36.9657C215.735 36.8922 215.521 36.8072 215.31 36.7108C215.103 36.6097 214.917 36.4834 214.752 36.3318C214.591 36.1802 214.46 35.9942 214.359 35.7737C214.263 35.5533 214.215 35.2869 214.215 34.9745C214.215 34.6851 214.272 34.4095 214.387 34.1477C214.502 33.8859 214.669 33.6585 214.89 33.4656C215.115 33.2681 215.393 33.1119 215.724 32.9971C216.059 32.8777 216.445 32.818 216.881 32.818C217.368 32.818 217.811 32.8984 218.211 33.0591C218.61 33.2199 218.943 33.4312 219.21 33.693L218.824 34.3062Z" fill="white" fill-opacity="0.8"/>
</svg>
