<svg width="221" height="52" viewBox="0 0 221 52" fill="none" xmlns="http://www.w3.org/2000/svg">
<path d="M14.6838 26.8815C16.5358 26.8815 17.8687 26.4395 18.6825 25.5556C19.4962 24.6717 19.9031 23.437 19.9031 21.8516C19.9031 21.1501 19.7979 20.5117 19.5874 19.9364C19.377 19.3612 19.0543 18.8701 18.6193 18.4633C18.1984 18.0423 17.6583 17.7196 16.9988 17.4952C16.3534 17.2707 15.5818 17.1584 14.6838 17.1584H10.9798V26.8815H14.6838ZM14.6838 11.8339C16.8445 11.8339 18.6965 12.0935 20.2398 12.6126C21.7972 13.1177 23.074 13.8192 24.0701 14.7172C25.0803 15.6151 25.8239 16.6744 26.301 17.895C26.778 19.1157 27.0165 20.4345 27.0165 21.8516C27.0165 23.3809 26.771 24.7839 26.2799 26.0607C25.7889 27.3375 25.0382 28.4318 24.028 29.3438C23.0179 30.2558 21.7341 30.9713 20.1767 31.4904C18.6334 31.9955 16.8024 32.2481 14.6838 32.2481H10.9798V42.4973H3.86643V11.8339H14.6838ZM53.8177 34.5631C53.986 34.5631 54.1544 34.5982 54.3228 34.6683C54.4911 34.7244 54.6525 34.8297 54.8068 34.984L57.6269 37.9514C56.3922 39.5649 54.8419 40.7856 52.9758 41.6133C51.1238 42.4271 48.9281 42.834 46.3886 42.834C44.0596 42.834 41.969 42.4411 40.117 41.6554C38.279 40.8557 36.7147 39.7613 35.4239 38.3723C34.1471 36.9693 33.165 35.3137 32.4775 33.4056C31.79 31.4834 31.4463 29.3999 31.4463 27.1551C31.4463 24.8681 31.8181 22.7706 32.5617 20.8624C33.3053 18.9403 34.3505 17.2847 35.6975 15.8957C37.0444 14.5067 38.6579 13.4264 40.5379 12.6547C42.418 11.883 44.4875 11.4972 46.7464 11.4972C47.8969 11.4972 48.9772 11.6024 49.9874 11.8129C51.0116 12.0093 51.9657 12.2899 52.8496 12.6547C53.7335 13.0054 54.5472 13.4334 55.2909 13.9385C56.0345 14.4436 56.6939 14.9907 57.2691 15.58L54.8699 18.8C54.7156 18.9964 54.5332 19.1788 54.3228 19.3472C54.1123 19.5015 53.8177 19.5787 53.4388 19.5787C53.1863 19.5787 52.9478 19.5225 52.7233 19.4103C52.4988 19.2981 52.2603 19.1648 52.0077 19.0104C51.7552 18.8421 51.4746 18.6667 51.1659 18.4843C50.8713 18.2879 50.5135 18.1125 50.0926 17.9582C49.6857 17.7898 49.2017 17.6495 48.6405 17.5373C48.0933 17.425 47.4479 17.3689 46.7043 17.3689C45.5257 17.3689 44.4454 17.5864 43.4633 18.0213C42.4952 18.4562 41.6533 19.0946 40.9378 19.9364C40.2363 20.7642 39.6891 21.7885 39.2962 23.0091C38.9174 24.2157 38.728 25.5977 38.728 27.1551C38.728 28.7265 38.9385 30.1225 39.3594 31.3431C39.7943 32.5638 40.3766 33.595 41.1062 34.4368C41.8498 35.2646 42.7126 35.896 43.6948 36.3309C44.6769 36.7659 45.7292 36.9833 46.8516 36.9833C47.497 36.9833 48.0863 36.9553 48.6194 36.8991C49.1526 36.829 49.6506 36.7238 50.1137 36.5835C50.5767 36.4291 51.0116 36.2327 51.4185 35.9942C51.8254 35.7416 52.2393 35.426 52.6602 35.0471C52.8285 34.9068 53.0109 34.7946 53.2073 34.7104C53.4038 34.6122 53.6072 34.5631 53.8177 34.5631ZM83.2255 34.5631C83.3939 34.5631 83.5622 34.5982 83.7306 34.6683C83.899 34.7244 84.0603 34.8297 84.2146 34.984L87.0347 37.9514C85.8001 39.5649 84.2497 40.7856 82.3837 41.6133C80.5317 42.4271 78.3359 42.834 75.7964 42.834C73.4674 42.834 71.3769 42.4411 69.5249 41.6554C67.6869 40.8557 66.1225 39.7613 64.8317 38.3723C63.5549 36.9693 62.5728 35.3137 61.8853 33.4056C61.1978 31.4834 60.8541 29.3999 60.8541 27.1551C60.8541 24.8681 61.2259 22.7706 61.9695 20.8624C62.7131 18.9403 63.7584 17.2847 65.1053 15.8957C66.4522 14.5067 68.0657 13.4264 69.9458 12.6547C71.8258 11.883 73.8953 11.4972 76.1542 11.4972C77.3047 11.4972 78.385 11.6024 79.3952 11.8129C80.4194 12.0093 81.3735 12.2899 82.2574 12.6547C83.1413 13.0054 83.9551 13.4334 84.6987 13.9385C85.4423 14.4436 86.1017 14.9907 86.677 15.58L84.2778 18.8C84.1234 18.9964 83.9411 19.1788 83.7306 19.3472C83.5201 19.5015 83.2255 19.5787 82.8467 19.5787C82.5941 19.5787 82.3556 19.5225 82.1311 19.4103C81.9067 19.2981 81.6681 19.1648 81.4156 19.0104C81.163 18.8421 80.8824 18.6667 80.5738 18.4843C80.2791 18.2879 79.9214 18.1125 79.5004 17.9582C79.0936 17.7898 78.6095 17.6495 78.0483 17.5373C77.5011 17.425 76.8557 17.3689 76.1121 17.3689C74.9336 17.3689 73.8532 17.5864 72.8711 18.0213C71.903 18.4562 71.0612 19.0946 70.3456 19.9364C69.6441 20.7642 69.0969 21.7885 68.7041 23.0091C68.3253 24.2157 68.1359 25.5977 68.1359 27.1551C68.1359 28.7265 68.3463 30.1225 68.7672 31.3431C69.2022 32.5638 69.7844 33.595 70.514 34.4368C71.2576 35.2646 72.1205 35.896 73.1026 36.3309C74.0847 36.7659 75.137 36.9833 76.2594 36.9833C76.9048 36.9833 77.4941 36.9553 78.0273 36.8991C78.5604 36.829 79.0585 36.7238 79.5215 36.5835C79.9845 36.4291 80.4194 36.2327 80.8263 35.9942C81.2332 35.7416 81.6471 35.426 82.068 35.0471C82.2364 34.9068 82.4188 34.7946 82.6152 34.7104C82.8116 34.6122 83.015 34.5631 83.2255 34.5631Z" fill="#2B2D42"/>
<line x1="99.2486" y1="6.70551" x2="99.2486" y2="45.289" stroke="#2B2D42" stroke-opacity="0.5" stroke-width="1.37798"/>
<path d="M113.931 17.0434C114.271 17.0434 114.567 17.0021 114.82 16.9194C115.072 16.8321 115.281 16.7104 115.447 16.5542C115.617 16.3935 115.743 16.2005 115.826 15.9755C115.908 15.7458 115.95 15.4909 115.95 15.2107C115.95 14.9443 115.908 14.7031 115.826 14.4873C115.743 14.2714 115.619 14.0876 115.454 13.9361C115.288 13.7845 115.079 13.6697 114.827 13.5916C114.574 13.5089 114.276 13.4675 113.931 13.4675H112.546V17.0434H113.931ZM113.931 12.0344C114.597 12.0344 115.174 12.1125 115.66 12.2687C116.147 12.4249 116.549 12.6431 116.866 12.9232C117.183 13.2034 117.417 13.5387 117.569 13.9292C117.725 14.3196 117.803 14.7468 117.803 15.2107C117.803 15.693 117.723 16.1362 117.562 16.5404C117.401 16.9401 117.16 17.2846 116.839 17.5739C116.517 17.8633 116.113 18.0884 115.626 18.2491C115.144 18.4099 114.579 18.4903 113.931 18.4903H112.546V21.9973H110.693V12.0344H113.931ZM125.019 14.9282V21.9973H123.979C123.754 21.9973 123.612 21.8939 123.552 21.6872L123.435 21.1222C123.145 21.4162 122.826 21.6551 122.477 21.8388C122.128 22.0179 121.717 22.1075 121.244 22.1075C120.858 22.1075 120.516 22.0432 120.217 21.9146C119.923 21.7814 119.675 21.5953 119.473 21.3565C119.271 21.1176 119.117 20.8352 119.011 20.509C118.91 20.1783 118.86 19.8154 118.86 19.4204V14.9282H120.562V19.4204C120.562 19.8522 120.66 20.1875 120.858 20.4264C121.06 20.6606 121.361 20.7777 121.761 20.7777C122.055 20.7777 122.33 20.7134 122.587 20.5848C122.845 20.4516 123.088 20.2702 123.318 20.0405V14.9282H125.019ZM128.298 15.7963C128.441 15.6539 128.59 15.523 128.746 15.4036C128.907 15.2796 129.075 15.1762 129.249 15.0936C129.428 15.0063 129.619 14.9397 129.821 14.8938C130.023 14.8432 130.244 14.818 130.483 14.818C130.868 14.818 131.211 14.8846 131.509 15.0178C131.808 15.1464 132.056 15.3301 132.253 15.569C132.455 15.8032 132.607 16.0857 132.708 16.4164C132.814 16.7426 132.866 17.1031 132.866 17.4981V21.9973H131.165V17.4981C131.165 17.0664 131.066 16.7334 130.868 16.4991C130.671 16.2603 130.37 16.1408 129.966 16.1408C129.672 16.1408 129.396 16.2074 129.139 16.3406C128.882 16.4738 128.638 16.6553 128.409 16.8849V21.9973H126.707V14.9282H127.747C127.968 14.9282 128.112 15.0316 128.181 15.2383L128.298 15.7963ZM136.747 22.1075C136.132 22.1075 135.658 21.9352 135.328 21.5907C135.002 21.2417 134.839 20.7617 134.839 20.1508V16.2028H134.115C134.023 16.2028 133.945 16.173 133.881 16.1133C133.817 16.0536 133.784 15.964 133.784 15.8446V15.1694L134.921 14.9833L135.28 13.0542C135.302 12.9623 135.346 12.8911 135.41 12.8406C135.475 12.79 135.557 12.7648 135.658 12.7648H136.54V14.9902H138.428V16.2028H136.54V20.0336C136.54 20.2541 136.593 20.4264 136.699 20.5504C136.809 20.6744 136.958 20.7364 137.147 20.7364C137.252 20.7364 137.34 20.7249 137.408 20.702C137.482 20.6744 137.544 20.6468 137.595 20.6193C137.65 20.5917 137.698 20.5664 137.739 20.5435C137.781 20.5159 137.822 20.5021 137.863 20.5021C137.914 20.5021 137.955 20.5159 137.987 20.5435C138.019 20.5664 138.054 20.6032 138.091 20.6537L138.6 21.4805C138.352 21.6872 138.068 21.8434 137.746 21.949C137.425 22.0547 137.092 22.1075 136.747 22.1075ZM142.592 14.818C143.116 14.818 143.591 14.9029 144.018 15.0729C144.45 15.2428 144.817 15.484 145.121 15.7963C145.428 16.1087 145.665 16.4899 145.83 16.9401C145.996 17.3902 146.078 17.8932 146.078 18.449C146.078 19.0093 145.996 19.5146 145.83 19.9647C145.665 20.4149 145.428 20.7984 145.121 21.1153C144.817 21.4323 144.45 21.6757 144.018 21.8457C143.591 22.0156 143.116 22.1006 142.592 22.1006C142.064 22.1006 141.584 22.0156 141.152 21.8457C140.72 21.6757 140.35 21.4323 140.043 21.1153C139.74 20.7984 139.503 20.4149 139.333 19.9647C139.168 19.5146 139.085 19.0093 139.085 18.449C139.085 17.8932 139.168 17.3902 139.333 16.9401C139.503 16.4899 139.74 16.1087 140.043 15.7963C140.35 15.484 140.72 15.2428 141.152 15.0729C141.584 14.9029 142.064 14.818 142.592 14.818ZM142.592 20.7915C143.18 20.7915 143.614 20.594 143.894 20.199C144.179 19.804 144.321 19.2252 144.321 18.4627C144.321 17.7002 144.179 17.1192 143.894 16.7196C143.614 16.32 143.18 16.1202 142.592 16.1202C141.995 16.1202 141.552 16.3223 141.262 16.7265C140.977 17.1261 140.835 17.7048 140.835 18.4627C140.835 19.2206 140.977 19.7994 141.262 20.199C141.552 20.594 141.995 20.7915 142.592 20.7915ZM155.581 16.6782C155.351 16.3705 155.103 16.1569 154.836 16.0375C154.57 15.9135 154.271 15.8515 153.941 15.8515C153.293 15.8515 152.795 16.0834 152.446 16.5473C152.097 17.0113 151.922 17.6727 151.922 18.5316C151.922 18.9864 151.961 19.3768 152.039 19.7029C152.117 20.0244 152.232 20.2909 152.384 20.5021C152.535 20.7088 152.721 20.8604 152.942 20.9569C153.162 21.0533 153.412 21.1016 153.693 21.1016C154.097 21.1016 154.448 21.0097 154.747 20.826C155.05 20.6422 155.328 20.3827 155.581 20.0474V16.6782ZM156.807 11.8484V21.9973H156.077C155.902 21.9973 155.792 21.9123 155.746 21.7423L155.636 20.8949C155.337 21.2531 154.997 21.5425 154.616 21.763C154.235 21.9835 153.794 22.0937 153.293 22.0937C152.893 22.0937 152.531 22.0179 152.204 21.8663C151.878 21.7102 151.6 21.4828 151.371 21.1842C151.141 20.8857 150.964 20.5136 150.84 20.0681C150.716 19.6225 150.654 19.1104 150.654 18.5316C150.654 18.0172 150.723 17.5395 150.861 17.0985C150.999 16.653 151.196 16.2671 151.453 15.941C151.711 15.6149 152.025 15.36 152.397 15.1762C152.774 14.9879 153.197 14.8938 153.665 14.8938C154.092 14.8938 154.457 14.9673 154.761 15.1142C155.068 15.2566 155.342 15.4564 155.581 15.7137V11.8484H156.807ZM163.415 17.7462C163.415 17.4614 163.374 17.2019 163.291 16.9676C163.213 16.7288 163.096 16.5244 162.94 16.3544C162.788 16.1799 162.602 16.0467 162.382 15.9548C162.161 15.8583 161.911 15.8101 161.631 15.8101C161.043 15.8101 160.577 15.9824 160.232 16.3269C159.892 16.6668 159.681 17.1399 159.598 17.7462H163.415ZM164.407 21.0189C164.256 21.2026 164.074 21.3634 163.863 21.5012C163.652 21.6344 163.424 21.7446 163.181 21.8319C162.942 21.9192 162.694 21.9835 162.437 22.0248C162.18 22.0707 161.925 22.0937 161.672 22.0937C161.19 22.0937 160.744 22.0133 160.336 21.8526C159.931 21.6872 159.58 21.4484 159.281 21.136C158.987 20.8191 158.758 20.4287 158.592 19.9647C158.427 19.5008 158.344 18.968 158.344 18.3663C158.344 17.8794 158.418 17.4247 158.565 17.0021C158.716 16.5795 158.932 16.2143 159.212 15.9066C159.493 15.5942 159.835 15.3508 160.239 15.1762C160.643 14.9971 161.098 14.9075 161.603 14.9075C162.021 14.9075 162.407 14.9787 162.761 15.1211C163.119 15.2589 163.427 15.461 163.684 15.7274C163.946 15.9893 164.15 16.3154 164.297 16.7058C164.444 17.0916 164.518 17.5326 164.518 18.0287C164.518 18.2216 164.497 18.3502 164.456 18.4145C164.414 18.4788 164.336 18.511 164.221 18.511H159.557C159.571 18.9519 159.63 19.3355 159.736 19.6616C159.846 19.9877 159.998 20.261 160.191 20.4815C160.384 20.6974 160.613 20.8604 160.88 20.9707C161.146 21.0763 161.445 21.1291 161.776 21.1291C162.083 21.1291 162.347 21.0947 162.568 21.0258C162.793 20.9523 162.986 20.8742 163.147 20.7915C163.307 20.7088 163.441 20.6331 163.546 20.5642C163.656 20.4907 163.751 20.4539 163.829 20.4539C163.93 20.4539 164.008 20.493 164.063 20.571L164.407 21.0189ZM176.529 19.6478C176.63 19.6478 176.72 19.6868 176.798 19.7649L177.528 20.5573C177.124 21.0579 176.626 21.4415 176.033 21.7079C175.445 21.9743 174.738 22.1075 173.911 22.1075C173.172 22.1075 172.506 21.9812 171.913 21.7285C171.325 21.4759 170.822 21.1245 170.404 20.6744C169.986 20.2243 169.665 19.6868 169.44 19.0622C169.219 18.4375 169.109 17.7554 169.109 17.0159C169.109 16.2671 169.228 15.5828 169.467 14.9627C169.706 14.338 170.041 13.8006 170.473 13.3504C170.909 12.9003 171.428 12.5512 172.03 12.3032C172.632 12.0505 173.298 11.9242 174.028 11.9242C174.754 11.9242 175.397 12.0436 175.957 12.2825C176.522 12.5213 177.002 12.8337 177.397 13.2195L176.777 14.0808C176.741 14.1359 176.692 14.1841 176.633 14.2254C176.578 14.2668 176.499 14.2874 176.398 14.2874C176.329 14.2874 176.258 14.2691 176.185 14.2323C176.111 14.191 176.031 14.1428 175.944 14.0876C175.856 14.0279 175.755 13.9636 175.64 13.8947C175.526 13.8258 175.392 13.7638 175.241 13.7087C175.089 13.649 174.912 13.6008 174.71 13.564C174.513 13.5227 174.283 13.502 174.021 13.502C173.576 13.502 173.167 13.5824 172.795 13.7431C172.427 13.8993 172.111 14.129 171.844 14.4321C171.578 14.7307 171.371 15.0982 171.224 15.5345C171.077 15.9663 171.004 16.4601 171.004 17.0159C171.004 17.5762 171.082 18.0746 171.238 18.511C171.399 18.9473 171.614 19.3148 171.885 19.6133C172.156 19.9119 172.476 20.1416 172.843 20.3023C173.211 20.4585 173.606 20.5366 174.028 20.5366C174.281 20.5366 174.508 20.5228 174.71 20.4953C174.917 20.4677 175.105 20.4241 175.275 20.3643C175.45 20.3046 175.613 20.2288 175.764 20.137C175.921 20.0405 176.075 19.9234 176.226 19.7856C176.272 19.7443 176.32 19.7121 176.371 19.6891C176.421 19.6616 176.474 19.6478 176.529 19.6478ZM181.509 14.818C182.033 14.818 182.508 14.9029 182.935 15.0729C183.367 15.2428 183.735 15.484 184.038 15.7963C184.346 16.1087 184.582 16.4899 184.747 16.9401C184.913 17.3902 184.995 17.8932 184.995 18.449C184.995 19.0093 184.913 19.5146 184.747 19.9647C184.582 20.4149 184.346 20.7984 184.038 21.1153C183.735 21.4323 183.367 21.6757 182.935 21.8457C182.508 22.0156 182.033 22.1006 181.509 22.1006C180.981 22.1006 180.501 22.0156 180.069 21.8457C179.637 21.6757 179.268 21.4323 178.96 21.1153C178.657 20.7984 178.42 20.4149 178.25 19.9647C178.085 19.5146 178.002 19.0093 178.002 18.449C178.002 17.8932 178.085 17.3902 178.25 16.9401C178.42 16.4899 178.657 16.1087 178.96 15.7963C179.268 15.484 179.637 15.2428 180.069 15.0729C180.501 14.9029 180.981 14.818 181.509 14.818ZM181.509 20.7915C182.097 20.7915 182.531 20.594 182.811 20.199C183.096 19.804 183.239 19.2252 183.239 18.4627C183.239 17.7002 183.096 17.1192 182.811 16.7196C182.531 16.32 182.097 16.1202 181.509 16.1202C180.912 16.1202 180.469 16.3223 180.179 16.7265C179.895 17.1261 179.752 17.7048 179.752 18.4627C179.752 19.2206 179.895 19.7994 180.179 20.199C180.469 20.594 180.912 20.7915 181.509 20.7915ZM187.885 15.7963C188.028 15.6539 188.177 15.523 188.333 15.4036C188.494 15.2796 188.662 15.1762 188.836 15.0936C189.015 15.0063 189.206 14.9397 189.408 14.8938C189.61 14.8432 189.831 14.818 190.069 14.818C190.455 14.818 190.797 14.8846 191.096 15.0178C191.395 15.1464 191.643 15.3301 191.84 15.569C192.042 15.8032 192.194 16.0857 192.295 16.4164C192.401 16.7426 192.453 17.1031 192.453 17.4981V21.9973H190.752V17.4981C190.752 17.0664 190.653 16.7334 190.455 16.4991C190.258 16.2603 189.957 16.1408 189.553 16.1408C189.259 16.1408 188.983 16.2074 188.726 16.3406C188.469 16.4738 188.225 16.6553 187.996 16.8849V21.9973H186.294V14.9282H187.334C187.555 14.9282 187.699 15.0316 187.768 15.2383L187.885 15.7963ZM196.334 22.1075C195.718 22.1075 195.245 21.9352 194.915 21.5907C194.589 21.2417 194.425 20.7617 194.425 20.1508V16.2028H193.702C193.61 16.2028 193.532 16.173 193.468 16.1133C193.403 16.0536 193.371 15.964 193.371 15.8446V15.1694L194.508 14.9833L194.866 13.0542C194.889 12.9623 194.933 12.8911 194.997 12.8406C195.062 12.79 195.144 12.7648 195.245 12.7648H196.127V14.9902H198.015V16.2028H196.127V20.0336C196.127 20.2541 196.18 20.4264 196.286 20.5504C196.396 20.6744 196.545 20.7364 196.734 20.7364C196.839 20.7364 196.927 20.7249 196.995 20.702C197.069 20.6744 197.131 20.6468 197.181 20.6193C197.237 20.5917 197.285 20.5664 197.326 20.5435C197.367 20.5159 197.409 20.5021 197.45 20.5021C197.501 20.5021 197.542 20.5159 197.574 20.5435C197.606 20.5664 197.641 20.6032 197.678 20.6537L198.187 21.4805C197.939 21.6872 197.655 21.8434 197.333 21.949C197.011 22.0547 196.678 22.1075 196.334 22.1075ZM200.71 16.1546C200.931 15.732 201.192 15.4013 201.495 15.1625C201.799 14.919 202.157 14.7973 202.57 14.7973C202.896 14.7973 203.158 14.8685 203.356 15.0109L203.246 16.2855C203.223 16.3682 203.188 16.4279 203.142 16.4647C203.101 16.4968 203.043 16.5129 202.97 16.5129C202.901 16.5129 202.798 16.5014 202.66 16.4784C202.527 16.4555 202.396 16.444 202.267 16.444C202.079 16.444 201.911 16.4715 201.764 16.5267C201.617 16.5818 201.484 16.6622 201.365 16.7678C201.25 16.8689 201.146 16.9929 201.055 17.1399C200.967 17.2869 200.885 17.4545 200.807 17.6428V21.9973H199.105V14.9282H200.104C200.278 14.9282 200.4 14.9604 200.469 15.0247C200.538 15.0844 200.584 15.1946 200.607 15.3554L200.71 16.1546ZM207.171 14.818C207.695 14.818 208.17 14.9029 208.598 15.0729C209.029 15.2428 209.397 15.484 209.7 15.7963C210.008 16.1087 210.244 16.4899 210.41 16.9401C210.575 17.3902 210.658 17.8932 210.658 18.449C210.658 19.0093 210.575 19.5146 210.41 19.9647C210.244 20.4149 210.008 20.7984 209.7 21.1153C209.397 21.4323 209.029 21.6757 208.598 21.8457C208.17 22.0156 207.695 22.1006 207.171 22.1006C206.643 22.1006 206.163 22.0156 205.731 21.8457C205.3 21.6757 204.93 21.4323 204.622 21.1153C204.319 20.7984 204.082 20.4149 203.912 19.9647C203.747 19.5146 203.664 19.0093 203.664 18.449C203.664 17.8932 203.747 17.3902 203.912 16.9401C204.082 16.4899 204.319 16.1087 204.622 15.7963C204.93 15.484 205.3 15.2428 205.731 15.0729C206.163 14.9029 206.643 14.818 207.171 14.818ZM207.171 20.7915C207.759 20.7915 208.193 20.594 208.474 20.199C208.758 19.804 208.901 19.2252 208.901 18.4627C208.901 17.7002 208.758 17.1192 208.474 16.7196C208.193 16.32 207.759 16.1202 207.171 16.1202C206.574 16.1202 206.131 16.3223 205.842 16.7265C205.557 17.1261 205.414 17.7048 205.414 18.4627C205.414 19.2206 205.557 19.7994 205.842 20.199C206.131 20.594 206.574 20.7915 207.171 20.7915ZM213.678 11.7589V21.9973H211.977V11.7589H213.678ZM115.102 34.6782C114.873 34.3705 114.625 34.1569 114.358 34.0375C114.092 33.9135 113.793 33.8515 113.463 33.8515C112.815 33.8515 112.316 34.0834 111.967 34.5473C111.618 35.0113 111.444 35.6727 111.444 36.5316C111.444 36.9864 111.483 37.3768 111.561 37.7029C111.639 38.0244 111.754 38.2909 111.905 38.5021C112.057 38.7088 112.243 38.8604 112.463 38.9569C112.684 39.0533 112.934 39.1016 113.214 39.1016C113.619 39.1016 113.97 39.0097 114.269 38.826C114.572 38.6422 114.85 38.3827 115.102 38.0474V34.6782ZM116.329 29.8484V39.9973H115.598C115.424 39.9973 115.314 39.9123 115.268 39.7423L115.157 38.8949C114.859 39.2531 114.519 39.5425 114.138 39.763C113.756 39.9835 113.316 40.0937 112.815 40.0937C112.415 40.0937 112.052 40.0179 111.726 39.8663C111.4 39.7102 111.122 39.4828 110.893 39.1842C110.663 38.8857 110.486 38.5136 110.362 38.0681C110.238 37.6225 110.176 37.1104 110.176 36.5316C110.176 36.0172 110.245 35.5395 110.383 35.0985C110.521 34.653 110.718 34.2671 110.975 33.941C111.232 33.6149 111.547 33.36 111.919 33.1762C112.296 32.9879 112.718 32.8938 113.187 32.8938C113.614 32.8938 113.979 32.9673 114.282 33.1142C114.59 33.2566 114.863 33.4564 115.102 33.7137V29.8484H116.329ZM122.937 35.7462C122.937 35.4614 122.896 35.2019 122.813 34.9676C122.735 34.7288 122.618 34.5244 122.462 34.3544C122.31 34.1799 122.124 34.0467 121.904 33.9548C121.683 33.8583 121.433 33.8101 121.153 33.8101C120.565 33.8101 120.098 33.9824 119.754 34.3269C119.414 34.6668 119.203 35.1399 119.12 35.7462H122.937ZM123.929 39.0189C123.778 39.2026 123.596 39.3634 123.385 39.5012C123.174 39.6344 122.946 39.7446 122.703 39.8319C122.464 39.9192 122.216 39.9835 121.959 40.0248C121.702 40.0707 121.447 40.0937 121.194 40.0937C120.712 40.0937 120.266 40.0133 119.857 39.8526C119.453 39.6872 119.102 39.4484 118.803 39.136C118.509 38.8191 118.28 38.4287 118.114 37.9647C117.949 37.5008 117.866 36.968 117.866 36.3663C117.866 35.8794 117.94 35.4247 118.087 35.0021C118.238 34.5795 118.454 34.2143 118.734 33.9066C119.014 33.5942 119.357 33.3508 119.761 33.1762C120.165 32.9971 120.62 32.9075 121.125 32.9075C121.543 32.9075 121.929 32.9787 122.283 33.1211C122.641 33.2589 122.949 33.461 123.206 33.7274C123.468 33.9893 123.672 34.3154 123.819 34.7058C123.966 35.0916 124.039 35.5326 124.039 36.0287C124.039 36.2216 124.019 36.3502 123.977 36.4145C123.936 36.4788 123.858 36.511 123.743 36.511H119.079C119.093 36.9519 119.152 37.3355 119.258 37.6616C119.368 37.9877 119.52 38.261 119.713 38.4815C119.906 38.6974 120.135 38.8604 120.402 38.9707C120.668 39.0763 120.967 39.1291 121.297 39.1291C121.605 39.1291 121.869 39.0947 122.09 39.0258C122.315 38.9523 122.508 38.8742 122.668 38.7915C122.829 38.7088 122.962 38.6331 123.068 38.5642C123.178 38.4907 123.272 38.4539 123.35 38.4539C123.452 38.4539 123.53 38.493 123.585 38.571L123.929 39.0189ZM136.051 37.6478C136.152 37.6478 136.242 37.6868 136.32 37.7649L137.05 38.5573C136.646 39.0579 136.148 39.4415 135.555 39.7079C134.967 39.9743 134.26 40.1075 133.433 40.1075C132.693 40.1075 132.027 39.9812 131.435 39.7285C130.847 39.4759 130.344 39.1245 129.926 38.6744C129.508 38.2243 129.186 37.6868 128.961 37.0622C128.741 36.4375 128.631 35.7554 128.631 35.0159C128.631 34.2671 128.75 33.5828 128.989 32.9627C129.228 32.338 129.563 31.8006 129.995 31.3504C130.431 30.9003 130.95 30.5512 131.552 30.3032C132.154 30.0505 132.82 29.9242 133.55 29.9242C134.276 29.9242 134.919 30.0436 135.479 30.2825C136.044 30.5213 136.524 30.8337 136.919 31.2195L136.299 32.0808C136.262 32.1359 136.214 32.1841 136.154 32.2254C136.099 32.2668 136.021 32.2874 135.92 32.2874C135.851 32.2874 135.78 32.2691 135.707 32.2323C135.633 32.191 135.553 32.1428 135.465 32.0876C135.378 32.0279 135.277 31.9636 135.162 31.8947C135.047 31.8258 134.914 31.7638 134.763 31.7087C134.611 31.649 134.434 31.6008 134.232 31.564C134.035 31.5227 133.805 31.502 133.543 31.502C133.098 31.502 132.689 31.5824 132.317 31.7431C131.949 31.8993 131.632 32.129 131.366 32.4321C131.1 32.7307 130.893 33.0982 130.746 33.5345C130.599 33.9663 130.525 34.4601 130.525 35.0159C130.525 35.5762 130.603 36.0746 130.76 36.511C130.92 36.9473 131.136 37.3148 131.407 37.6133C131.678 37.9119 131.998 38.1416 132.365 38.3023C132.732 38.4585 133.127 38.5366 133.55 38.5366C133.803 38.5366 134.03 38.5228 134.232 38.4953C134.439 38.4677 134.627 38.4241 134.797 38.3643C134.972 38.3046 135.135 38.2288 135.286 38.137C135.442 38.0405 135.596 37.9234 135.748 37.7856C135.794 37.7443 135.842 37.7121 135.893 37.6891C135.943 37.6616 135.996 37.6478 136.051 37.6478ZM142.457 35.6497C142.457 35.4292 142.425 35.2225 142.361 35.0296C142.301 34.8321 142.209 34.6599 142.085 34.5129C141.961 34.3659 141.803 34.2511 141.61 34.1684C141.421 34.0811 141.201 34.0375 140.948 34.0375C140.457 34.0375 140.069 34.1776 139.784 34.4578C139.504 34.738 139.325 35.1353 139.246 35.6497H142.457ZM139.212 36.6763C139.24 37.0392 139.304 37.3538 139.405 37.6202C139.506 37.8821 139.639 38.1002 139.805 38.2748C139.97 38.4447 140.165 38.5733 140.39 38.6606C140.62 38.7433 140.873 38.7846 141.148 38.7846C141.424 38.7846 141.66 38.7525 141.858 38.6882C142.06 38.6239 142.234 38.5527 142.381 38.4746C142.533 38.3965 142.664 38.3253 142.774 38.261C142.889 38.1967 142.999 38.1645 143.105 38.1645C143.247 38.1645 143.353 38.2174 143.422 38.323L143.911 38.9431C143.723 39.1636 143.511 39.3496 143.277 39.5012C143.043 39.6482 142.797 39.7676 142.54 39.8595C142.287 39.9467 142.028 40.0087 141.761 40.0455C141.499 40.0822 141.245 40.1006 140.997 40.1006C140.505 40.1006 140.048 40.0202 139.625 39.8595C139.203 39.6941 138.835 39.453 138.523 39.136C138.211 38.8145 137.965 38.4195 137.786 37.951C137.607 37.4778 137.517 36.9312 137.517 36.3112C137.517 35.8289 137.595 35.3764 137.751 34.9538C137.908 34.5267 138.13 34.1569 138.42 33.8446C138.714 33.5276 139.07 33.2773 139.488 33.0936C139.91 32.9098 140.386 32.818 140.914 32.818C141.359 32.818 141.77 32.8892 142.147 33.0316C142.524 33.1739 142.848 33.3829 143.119 33.6585C143.39 33.9295 143.601 34.2649 143.752 34.6645C143.909 35.0595 143.987 35.5119 143.987 36.0218C143.987 36.279 143.959 36.4535 143.904 36.5454C143.849 36.6327 143.743 36.6763 143.587 36.6763H139.212ZM146.869 34.1546C147.09 33.732 147.351 33.4013 147.655 33.1625C147.958 32.919 148.316 32.7973 148.729 32.7973C149.056 32.7973 149.317 32.8685 149.515 33.0109L149.405 34.2855C149.382 34.3682 149.347 34.4279 149.301 34.4647C149.26 34.4968 149.203 34.5129 149.129 34.5129C149.06 34.5129 148.957 34.5014 148.819 34.4784C148.686 34.4555 148.555 34.444 148.426 34.444C148.238 34.444 148.07 34.4715 147.923 34.5267C147.776 34.5818 147.643 34.6622 147.524 34.7678C147.409 34.8689 147.306 34.9929 147.214 35.1399C147.126 35.2869 147.044 35.4545 146.966 35.6428V39.9973H145.264V32.9282H146.263C146.437 32.9282 146.559 32.9604 146.628 33.0247C146.697 33.0844 146.743 33.1946 146.766 33.3554L146.869 34.1546ZM157.535 39.9973H155.834V34.2028H152.554V38.0336C152.554 38.2541 152.607 38.4264 152.712 38.5504C152.823 38.6744 152.972 38.7364 153.16 38.7364C153.266 38.7364 153.353 38.7249 153.422 38.702C153.496 38.6744 153.558 38.6468 153.608 38.6193C153.663 38.5917 153.712 38.5664 153.753 38.5435C153.794 38.5159 153.836 38.5021 153.877 38.5021C153.927 38.5021 153.969 38.5159 154.001 38.5435C154.033 38.5664 154.067 38.6032 154.104 38.6537L154.614 39.4805C154.366 39.6872 154.081 39.8434 153.76 39.949C153.438 40.0547 153.105 40.1075 152.761 40.1075C152.145 40.1075 151.672 39.9352 151.341 39.5907C151.015 39.2417 150.852 38.7617 150.852 38.1508V34.2028H150.129C150.037 34.2028 149.959 34.173 149.895 34.1133C149.83 34.0536 149.798 33.964 149.798 33.8446V33.1694L150.935 32.9764L151.293 31.0542C151.316 30.9623 151.36 30.8911 151.424 30.8406C151.488 30.79 151.571 30.7648 151.672 30.7648H152.554V32.9902H157.535V39.9973ZM157.832 30.8406C157.832 30.9876 157.802 31.1276 157.742 31.2609C157.682 31.3895 157.602 31.502 157.501 31.5985C157.405 31.6949 157.287 31.773 157.15 31.8327C157.016 31.8878 156.874 31.9154 156.722 31.9154C156.575 31.9154 156.438 31.8878 156.309 31.8327C156.18 31.773 156.068 31.6949 155.971 31.5985C155.875 31.502 155.797 31.3895 155.737 31.2609C155.682 31.1276 155.654 30.9876 155.654 30.8406C155.654 30.689 155.682 30.5489 155.737 30.4203C155.797 30.2871 155.875 30.1722 155.971 30.0758C156.068 29.9747 156.18 29.8967 156.309 29.8415C156.438 29.7818 156.575 29.752 156.722 29.752C156.874 29.752 157.016 29.7818 157.15 29.8415C157.287 29.8967 157.405 29.9747 157.501 30.0758C157.602 30.1722 157.682 30.2871 157.742 30.4203C157.802 30.5489 157.832 30.689 157.832 30.8406ZM159.775 39.9973V34.2097L159.162 34.1133C159.029 34.0857 158.921 34.0398 158.838 33.9755C158.76 33.9066 158.721 33.8101 158.721 33.6861V32.9902H159.775V32.7629C159.775 32.3311 159.847 31.9315 159.989 31.564C160.131 31.192 160.347 30.8704 160.637 30.5994C160.926 30.3284 161.291 30.1171 161.732 29.9655C162.178 29.8094 162.701 29.7313 163.303 29.7313C163.496 29.7313 163.691 29.7428 163.889 29.7657C164.091 29.7841 164.265 29.8163 164.412 29.8622L164.357 30.7441C164.348 30.8498 164.291 30.9141 164.185 30.937C164.079 30.9554 163.948 30.9646 163.792 30.9646C163.347 30.9646 162.972 31.0036 162.669 31.0817C162.371 31.1598 162.127 31.2769 161.939 31.4331C161.755 31.5847 161.622 31.7776 161.539 32.0119C161.461 32.2415 161.422 32.5102 161.422 32.818V32.9902H165.804V39.9973H164.102V34.2028H161.477V39.9973H159.775ZM172.612 34.4233C172.562 34.4876 172.511 34.5382 172.461 34.5749C172.415 34.6116 172.346 34.63 172.254 34.63C172.167 34.63 172.082 34.6048 171.999 34.5542C171.917 34.4991 171.818 34.4394 171.703 34.3751C171.588 34.3062 171.45 34.2465 171.29 34.196C171.133 34.1408 170.938 34.1133 170.704 34.1133C170.405 34.1133 170.144 34.1684 169.919 34.2786C169.693 34.3843 169.505 34.5382 169.354 34.7403C169.207 34.9424 169.096 35.1881 169.023 35.4775C168.949 35.7623 168.913 36.0861 168.913 36.449C168.913 36.8256 168.952 37.1609 169.03 37.4549C169.112 37.7488 169.23 37.9969 169.381 38.199C169.533 38.3965 169.716 38.5481 169.932 38.6537C170.148 38.7548 170.392 38.8053 170.663 38.8053C170.934 38.8053 171.152 38.7731 171.317 38.7088C171.487 38.6399 171.63 38.5664 171.744 38.4884C171.859 38.4057 171.958 38.3322 172.041 38.2679C172.128 38.199 172.224 38.1645 172.33 38.1645C172.468 38.1645 172.571 38.2174 172.64 38.323L173.129 38.9431C172.941 39.1636 172.736 39.3496 172.516 39.5012C172.296 39.6482 172.066 39.7676 171.827 39.8595C171.593 39.9467 171.349 40.0087 171.097 40.0455C170.849 40.0822 170.601 40.1006 170.353 40.1006C169.916 40.1006 169.505 40.0202 169.119 39.8595C168.733 39.6941 168.396 39.4552 168.106 39.1429C167.817 38.8306 167.587 38.4493 167.417 37.9992C167.252 37.5444 167.169 37.0277 167.169 36.449C167.169 35.9299 167.243 35.4499 167.39 35.009C167.541 34.5634 167.762 34.1799 168.051 33.8583C168.341 33.5322 168.699 33.2773 169.126 33.0936C169.553 32.9098 170.045 32.818 170.601 32.818C171.129 32.818 171.59 32.9029 171.985 33.0729C172.385 33.2428 172.743 33.4863 173.06 33.8032L172.612 34.4233ZM177.93 36.9795C177.439 37.0024 177.026 37.0461 176.69 37.1104C176.355 37.1701 176.086 37.2482 175.884 37.3446C175.682 37.4411 175.537 37.5536 175.45 37.6822C175.363 37.8109 175.319 37.951 175.319 38.1025C175.319 38.4011 175.406 38.6147 175.581 38.7433C175.76 38.8719 175.992 38.9362 176.277 38.9362C176.626 38.9362 176.927 38.8742 177.179 38.7502C177.437 38.6216 177.687 38.4287 177.93 38.1714V36.9795ZM174.031 33.9135C174.844 33.1694 175.822 32.7973 176.966 32.7973C177.379 32.7973 177.749 32.8662 178.075 33.004C178.401 33.1372 178.677 33.3255 178.902 33.569C179.127 33.8078 179.297 34.0949 179.412 34.4302C179.531 34.7655 179.591 35.133 179.591 35.5326V39.9973H178.819C178.658 39.9973 178.534 39.9743 178.447 39.9284C178.36 39.8778 178.291 39.7791 178.24 39.6321L178.089 39.1222C177.91 39.283 177.735 39.4254 177.565 39.5494C177.395 39.6688 177.218 39.7699 177.035 39.8526C176.851 39.9352 176.653 39.9973 176.442 40.0386C176.235 40.0845 176.006 40.1075 175.753 40.1075C175.455 40.1075 175.179 40.0684 174.926 39.9904C174.674 39.9077 174.456 39.786 174.272 39.6252C174.088 39.4644 173.946 39.2646 173.845 39.0258C173.744 38.7869 173.693 38.509 173.693 38.1921C173.693 38.013 173.723 37.8361 173.783 37.6616C173.842 37.4824 173.939 37.3125 174.072 37.1517C174.21 36.991 174.387 36.8394 174.603 36.697C174.818 36.5546 175.083 36.4306 175.395 36.3249C175.712 36.2193 176.079 36.1343 176.497 36.07C176.915 36.0011 177.393 35.9598 177.93 35.946V35.5326C177.93 35.0595 177.829 34.7104 177.627 34.4853C177.425 34.2557 177.133 34.1408 176.752 34.1408C176.477 34.1408 176.247 34.173 176.063 34.2373C175.884 34.3016 175.726 34.3751 175.588 34.4578C175.45 34.5359 175.324 34.607 175.209 34.6714C175.099 34.7357 174.975 34.7678 174.837 34.7678C174.717 34.7678 174.616 34.738 174.534 34.6782C174.451 34.6139 174.384 34.5404 174.334 34.4578L174.031 33.9135ZM186.258 34.4233C186.207 34.4876 186.157 34.5382 186.106 34.5749C186.06 34.6116 185.991 34.63 185.899 34.63C185.812 34.63 185.727 34.6048 185.645 34.5542C185.562 34.4991 185.463 34.4394 185.348 34.3751C185.233 34.3062 185.096 34.2465 184.935 34.196C184.779 34.1408 184.583 34.1133 184.349 34.1133C184.051 34.1133 183.789 34.1684 183.564 34.2786C183.339 34.3843 183.15 34.5382 182.999 34.7403C182.852 34.9424 182.742 35.1881 182.668 35.4775C182.595 35.7623 182.558 36.0861 182.558 36.449C182.558 36.8256 182.597 37.1609 182.675 37.4549C182.758 37.7488 182.875 37.9969 183.026 38.199C183.178 38.3965 183.362 38.5481 183.578 38.6537C183.793 38.7548 184.037 38.8053 184.308 38.8053C184.579 38.8053 184.797 38.7731 184.962 38.7088C185.132 38.6399 185.275 38.5664 185.39 38.4884C185.504 38.4057 185.603 38.3322 185.686 38.2679C185.773 38.199 185.87 38.1645 185.975 38.1645C186.113 38.1645 186.216 38.2174 186.285 38.323L186.774 38.9431C186.586 39.1636 186.382 39.3496 186.161 39.5012C185.941 39.6482 185.711 39.7676 185.472 39.8595C185.238 39.9467 184.995 40.0087 184.742 40.0455C184.494 40.0822 184.246 40.1006 183.998 40.1006C183.561 40.1006 183.15 40.0202 182.765 39.8595C182.379 39.6941 182.041 39.4552 181.752 39.1429C181.462 38.8306 181.233 38.4493 181.063 37.9992C180.897 37.5444 180.815 37.0277 180.815 36.449C180.815 35.9299 180.888 35.4499 181.035 35.009C181.187 34.5634 181.407 34.1799 181.697 33.8583C181.986 33.5322 182.344 33.2773 182.771 33.0936C183.199 32.9098 183.69 32.818 184.246 32.818C184.774 32.818 185.236 32.9029 185.631 33.0729C186.03 33.2428 186.389 33.4863 186.706 33.8032L186.258 34.4233ZM189.605 32.9282V39.9973H187.896V32.9282H189.605ZM189.839 30.8681C189.839 31.0151 189.81 31.1529 189.75 31.2815C189.69 31.4101 189.61 31.5227 189.509 31.6191C189.412 31.7156 189.297 31.7937 189.164 31.8534C189.031 31.9085 188.889 31.9361 188.737 31.9361C188.59 31.9361 188.45 31.9085 188.317 31.8534C188.188 31.7937 188.076 31.7156 187.979 31.6191C187.883 31.5227 187.805 31.4101 187.745 31.2815C187.69 31.1529 187.662 31.0151 187.662 30.8681C187.662 30.7165 187.69 30.5742 187.745 30.441C187.805 30.3077 187.883 30.1929 187.979 30.0965C188.076 30 188.188 29.9242 188.317 29.8691C188.45 29.8094 188.59 29.7795 188.737 29.7795C188.889 29.7795 189.031 29.8094 189.164 29.8691C189.297 29.9242 189.412 30 189.509 30.0965C189.61 30.1929 189.69 30.3077 189.75 30.441C189.81 30.5742 189.839 30.7165 189.839 30.8681ZM194.468 32.818C194.992 32.818 195.467 32.9029 195.894 33.0729C196.326 33.2428 196.694 33.484 196.997 33.7963C197.304 34.1087 197.541 34.4899 197.706 34.9401C197.872 35.3902 197.954 35.8932 197.954 36.449C197.954 37.0093 197.872 37.5146 197.706 37.9647C197.541 38.4149 197.304 38.7984 196.997 39.1153C196.694 39.4323 196.326 39.6757 195.894 39.8457C195.467 40.0156 194.992 40.1006 194.468 40.1006C193.94 40.1006 193.46 40.0156 193.028 39.8457C192.596 39.6757 192.227 39.4323 191.919 39.1153C191.616 38.7984 191.379 38.4149 191.209 37.9647C191.044 37.5146 190.961 37.0093 190.961 36.449C190.961 35.8932 191.044 35.3902 191.209 34.9401C191.379 34.4899 191.616 34.1087 191.919 33.7963C192.227 33.484 192.596 33.2428 193.028 33.0729C193.46 32.9029 193.94 32.818 194.468 32.818ZM194.468 38.7915C195.056 38.7915 195.49 38.594 195.77 38.199C196.055 37.804 196.197 37.2252 196.197 36.4627C196.197 35.7002 196.055 35.1192 195.77 34.7196C195.49 34.32 195.056 34.1202 194.468 34.1202C193.871 34.1202 193.428 34.3223 193.138 34.7265C192.854 35.1261 192.711 35.7048 192.711 36.4627C192.711 37.2206 192.854 37.7994 193.138 38.199C193.428 38.594 193.871 38.7915 194.468 38.7915ZM200.844 33.7963C200.987 33.6539 201.136 33.523 201.292 33.4036C201.453 33.2796 201.621 33.1762 201.795 33.0936C201.974 33.0063 202.165 32.9397 202.367 32.8938C202.569 32.8432 202.79 32.818 203.028 32.818C203.414 32.818 203.756 32.8846 204.055 33.0178C204.354 33.1464 204.602 33.3301 204.799 33.569C205.001 33.8032 205.153 34.0857 205.254 34.4164C205.359 34.7426 205.412 35.1031 205.412 35.4981V39.9973H203.71V35.4981C203.71 35.0664 203.612 34.7334 203.414 34.4991C203.217 34.2603 202.916 34.1408 202.512 34.1408C202.218 34.1408 201.942 34.2074 201.685 34.3406C201.428 34.4738 201.184 34.6553 200.955 34.8849V39.9973H199.253V32.9282H200.293C200.514 32.9282 200.658 33.0316 200.727 33.2383L200.844 33.7963ZM211.585 35.6497C211.585 35.4292 211.553 35.2225 211.489 35.0296C211.429 34.8321 211.337 34.6599 211.213 34.5129C211.089 34.3659 210.93 34.2511 210.738 34.1684C210.549 34.0811 210.329 34.0375 210.076 34.0375C209.585 34.0375 209.197 34.1776 208.912 34.4578C208.632 34.738 208.452 35.1353 208.374 35.6497H211.585ZM208.34 36.6763C208.367 37.0392 208.432 37.3538 208.533 37.6202C208.634 37.8821 208.767 38.1002 208.932 38.2748C209.098 38.4447 209.293 38.5733 209.518 38.6606C209.748 38.7433 210 38.7846 210.276 38.7846C210.552 38.7846 210.788 38.7525 210.986 38.6882C211.188 38.6239 211.362 38.5527 211.509 38.4746C211.661 38.3965 211.792 38.3253 211.902 38.261C212.017 38.1967 212.127 38.1645 212.233 38.1645C212.375 38.1645 212.481 38.2174 212.55 38.323L213.039 38.9431C212.85 39.1636 212.639 39.3496 212.405 39.5012C212.171 39.6482 211.925 39.7676 211.668 39.8595C211.415 39.9467 211.156 40.0087 210.889 40.0455C210.627 40.0822 210.372 40.1006 210.124 40.1006C209.633 40.1006 209.176 40.0202 208.753 39.8595C208.331 39.6941 207.963 39.453 207.651 39.136C207.339 38.8145 207.093 38.4195 206.914 37.951C206.735 37.4778 206.645 36.9312 206.645 36.3112C206.645 35.8289 206.723 35.3764 206.879 34.9538C207.035 34.5267 207.258 34.1569 207.548 33.8446C207.841 33.5276 208.197 33.2773 208.615 33.0936C209.038 32.9098 209.513 32.818 210.042 32.818C210.487 32.818 210.898 32.8892 211.275 33.0316C211.652 33.1739 211.975 33.3829 212.246 33.6585C212.517 33.9295 212.729 34.2649 212.88 34.6645C213.036 35.0595 213.115 35.5119 213.115 36.0218C213.115 36.279 213.087 36.4535 213.032 36.5454C212.977 36.6327 212.871 36.6763 212.715 36.6763H208.34ZM218.705 34.3062C218.659 34.3797 218.611 34.4325 218.56 34.4647C218.51 34.4922 218.445 34.506 218.367 34.506C218.284 34.506 218.195 34.483 218.098 34.4371C218.007 34.3912 217.899 34.3406 217.775 34.2855C217.651 34.2258 217.508 34.173 217.347 34.1271C217.191 34.0811 217.005 34.0582 216.789 34.0582C216.454 34.0582 216.19 34.1293 215.997 34.2717C215.809 34.4141 215.715 34.6002 215.715 34.8298C215.715 34.9814 215.763 35.11 215.859 35.2157C215.96 35.3167 216.091 35.4063 216.252 35.4844C216.417 35.5625 216.603 35.6336 216.81 35.698C217.017 35.7577 217.226 35.8243 217.437 35.8978C217.653 35.9713 217.864 36.0562 218.071 36.1527C218.278 36.2446 218.461 36.364 218.622 36.511C218.787 36.6534 218.918 36.8256 219.015 37.0277C219.116 37.2298 219.166 37.4733 219.166 37.758C219.166 38.0979 219.104 38.4126 218.98 38.702C218.861 38.9867 218.682 39.2348 218.443 39.4461C218.204 39.6528 217.908 39.8158 217.554 39.9352C217.205 40.0501 216.801 40.1075 216.342 40.1075C216.098 40.1075 215.859 40.0845 215.625 40.0386C215.395 39.9973 215.173 39.9375 214.957 39.8595C214.745 39.7814 214.548 39.6895 214.364 39.5839C214.185 39.4782 214.027 39.3634 213.889 39.2394L214.281 38.5917C214.332 38.5136 214.392 38.4539 214.461 38.4126C214.529 38.3712 214.617 38.3506 214.722 38.3506C214.828 38.3506 214.927 38.3804 215.019 38.4401C215.115 38.4998 215.225 38.5642 215.349 38.6331C215.473 38.702 215.618 38.7663 215.783 38.826C215.953 38.8857 216.167 38.9155 216.424 38.9155C216.626 38.9155 216.799 38.8926 216.941 38.8466C217.088 38.7961 217.207 38.7318 217.299 38.6537C217.396 38.5756 217.465 38.4861 217.506 38.385C217.552 38.2794 217.575 38.1714 217.575 38.0612C217.575 37.8958 217.524 37.7603 217.423 37.6547C217.327 37.549 217.196 37.4572 217.031 37.3791C216.87 37.301 216.684 37.2321 216.472 37.1724C216.266 37.1081 216.052 37.0392 215.832 36.9657C215.616 36.8922 215.402 36.8072 215.191 36.7108C214.984 36.6097 214.798 36.4834 214.633 36.3318C214.472 36.1802 214.341 35.9942 214.24 35.7737C214.144 35.5533 214.095 35.2869 214.095 34.9745C214.095 34.6851 214.153 34.4095 214.268 34.1477C214.382 33.8859 214.55 33.6585 214.771 33.4656C214.996 33.2681 215.274 33.1119 215.604 32.9971C215.94 32.8777 216.325 32.818 216.762 32.818C217.249 32.818 217.692 32.8984 218.092 33.0591C218.491 33.2199 218.824 33.4312 219.091 33.693L218.705 34.3062Z" fill="#2B2D42" fill-opacity="0.8"/>
</svg>
